{
    "asset": {
        "copyright": "(C)2019 ran",
        "generator": "Maya2glTF V0.9.10 b7c0eed",
        "version": "2.0"
    },
    "scenes": [
        {
            "nodes": [
                0
            ]
        }
    ],
    "scene": 0,
    "nodes": [
        {
            "mesh": 0,
            "name": "polySurface3504"
        }
    ],
    "meshes": [
        {
            "primitives": [
                {
                    "attributes": {
                        "NORMAL": 1,
                        "POSITION": 2
                    },
                    "indices": 0,
                    "mode": 4,
                    "material": 0
                },
                {
                    "attributes": {
                        "NORMAL": 4,
                        "POSITION": 5
                    },
                    "indices": 3,
                    "mode": 4,
                    "material": 1
                },
                {
                    "attributes": {
                        "NORMAL": 7,
                        "POSITION": 8
                    },
                    "indices": 6,
                    "mode": 4,
                    "material": 2
                },
                {
                    "attributes": {
                        "NORMAL": 10,
                        "POSITION": 11,
                        "TANGENT": 12,
                        "TEXCOORD_0": 13
                    },
                    "indices": 9,
                    "mode": 4,
                    "material": 3
                },
                {
                    "attributes": {
                        "NORMAL": 15,
                        "POSITION": 16
                    },
                    "indices": 14,
                    "mode": 4,
                    "material": 4
                },
                {
                    "attributes": {
                        "NORMAL": 18,
                        "POSITION": 19
                    },
                    "indices": 17,
                    "mode": 4,
                    "material": 5
                },
                {
                    "attributes": {
                        "NORMAL": 21,
                        "POSITION": 22
                    },
                    "indices": 20,
                    "mode": 4,
                    "material": 6
                },
                {
                    "attributes": {
                        "NORMAL": 24,
                        "POSITION": 25
                    },
                    "indices": 23,
                    "mode": 4,
                    "material": 7
                },
                {
                    "attributes": {
                        "NORMAL": 27,
                        "POSITION": 28
                    },
                    "indices": 26,
                    "mode": 4,
                    "material": 8
                },
                {
                    "attributes": {
                        "NORMAL": 30,
                        "POSITION": 31
                    },
                    "indices": 29,
                    "mode": 4,
                    "material": 9
                },
                {
                    "attributes": {
                        "NORMAL": 33,
                        "POSITION": 34,
                        "TANGENT": 35,
                        "TEXCOORD_0": 36
                    },
                    "indices": 32,
                    "mode": 4,
                    "material": 10
                }
            ],
            "name": "polySurface3504Shape"
        }
    ],
    "accessors": [
        {
            "bufferView": 0,
            "byteOffset": 0,
            "componentType": 5123,
            "count": 11466,
            "max": [
                10309
            ],
            "min": [
                0
            ],
            "type": "SCALAR"
        },
        {
            "bufferView": 1,
            "byteOffset": 0,
            "componentType": 5126,
            "count": 10310,
            "max": [
                1.0,
                1.0,
                1.0
            ],
            "min": [
                -1.0,
                -1.0,
                -1.0
            ],
            "type": "VEC3"
        },
        {
            "bufferView": 1,
            "byteOffset": 123720,
            "componentType": 5126,
            "count": 10310,
            "max": [
                39.12776184082031,
                18.561174392700197,
                12.169363021850586
            ],
            "min": [
                -39.12776565551758,
                7.517107009887695,
                -32.66285705566406
            ],
            "type": "VEC3"
        },
        {
            "bufferView": 0,
            "byteOffset": 22932,
            "componentType": 5123,
            "count": 3924,
            "max": [
                3530
            ],
            "min": [
                0
            ],
            "type": "SCALAR"
        },
        {
            "bufferView": 1,
            "byteOffset": 247440,
            "componentType": 5126,
            "count": 3531,
            "max": [
                1.0,
                1.0,
                1.0
            ],
            "min": [
                -1.0,
                -1.0,
                -1.0
            ],
            "type": "VEC3"
        },
        {
            "bufferView": 1,
            "byteOffset": 289812,
            "componentType": 5126,
            "count": 3531,
            "max": [
                37.47320938110352,
                15.427752494812012,
                10.032737731933594
            ],
            "min": [
                -37.44953918457031,
                1.2051670551300049,
                -31.00830078125
            ],
            "type": "VEC3"
        },
        {
            "bufferView": 0,
            "byteOffset": 30780,
            "componentType": 5123,
            "count": 96,
            "max": [
                81
            ],
            "min": [
                0
            ],
            "type": "SCALAR"
        },
        {
            "bufferView": 1,
            "byteOffset": 332184,
            "componentType": 5126,
            "count": 82,
            "max": [
                0.0,
                1.0,
                0.000011765467206714677
            ],
            "min": [
                0.0,
                -1.0,
                -0.000011765330782509408
            ],
            "type": "VEC3"
        },
        {
            "bufferView": 1,
            "byteOffset": 333168,
            "componentType": 5126,
            "count": 82,
            "max": [
                12.377761840820313,
                17.034629821777345,
                5.673289299011231
            ],
            "min": [
                -12.384881973266602,
                15.427741050720217,
                4.524806022644043
            ],
            "type": "VEC3"
        },
        {
            "bufferView": 0,
            "byteOffset": 30972,
            "componentType": 5123,
            "count": 312,
            "max": [
                207
            ],
            "min": [
                0
            ],
            "type": "SCALAR"
        },
        {
            "bufferView": 1,
            "byteOffset": 334152,
            "componentType": 5126,
            "count": 208,
            "max": [
                0.0,
                0.0,
                1.0
            ],
            "min": [
                0.0,
                0.0,
                -1.0
            ],
            "type": "VEC3"
        },
        {
            "bufferView": 1,
            "byteOffset": 336648,
            "componentType": 5126,
            "count": 208,
            "max": [
                35.3515739440918,
                7.030142307281494,
                5.099047660827637
            ],
            "min": [
                -35.3515739440918,
                4.177913188934326,
                -26.074615478515626
            ],
            "type": "VEC3"
        },
        {
            "bufferView": 2,
            "byteOffset": 0,
            "componentType": 5126,
            "count": 208,
            "max": [
                1.0,
                -0.0,
                0.0,
                1.0
            ],
            "min": [
                1.0,
                -0.0,
                0.0,
                1.0
            ],
            "type": "VEC4"
        },
        {
            "bufferView": 3,
            "byteOffset": 0,
            "componentType": 5126,
            "count": 208,
            "max": [
                1.7403264045715333,
                2.6214213371276857
            ],
            "min": [
                -0.7403257489204407,
                -1.572066307067871
            ],
            "type": "VEC2"
        },
        {
            "bufferView": 0,
            "byteOffset": 31596,
            "componentType": 5123,
            "count": 47907,
            "max": [
                37868
            ],
            "min": [
                0
            ],
            "type": "SCALAR"
        },
        {
            "bufferView": 1,
            "byteOffset": 339144,
            "componentType": 5126,
            "count": 37869,
            "max": [
                1.0,
                1.0,
                1.0
            ],
            "min": [
                -1.0,
                -1.0,
                -1.0
            ],
            "type": "VEC3"
        },
        {
            "bufferView": 1,
            "byteOffset": 793572,
            "componentType": 5126,
            "count": 37869,
            "max": [
                37.11914443969727,
                19.36182975769043,
                9.64654541015625
            ],
            "min": [
                -37.1191520690918,
                1.2051634788513184,
                -30.622108459472658
            ],
            "type": "VEC3"
        },
        {
            "bufferView": 0,
            "byteOffset": 127410,
            "componentType": 5123,
            "count": 24,
            "max": [
                15
            ],
            "min": [
                0
            ],
            "type": "SCALAR"
        },
        {
            "bufferView": 1,
            "byteOffset": 1248000,
            "componentType": 5126,
            "count": 16,
            "max": [
                1.0,
                0.0,
                0.0
            ],
            "min": [
                -1.0,
                0.0,
                -1.0
            ],
            "type": "VEC3"
        },
        {
            "bufferView": 1,
            "byteOffset": 1248192,
            "componentType": 5126,
            "count": 16,
            "max": [
                36.87812423706055,
                3.3744683265686037,
                5.099047660827637
            ],
            "min": [
                -36.91668319702149,
                1.205167293548584,
                -26.074615478515626
            ],
            "type": "VEC3"
        },
        {
            "bufferView": 0,
            "byteOffset": 127458,
            "componentType": 5123,
            "count": 6537,
            "max": [
                5447
            ],
            "min": [
                0
            ],
            "type": "SCALAR"
        },
        {
            "bufferView": 1,
            "byteOffset": 1248384,
            "componentType": 5126,
            "count": 5448,
            "max": [
                1.0,
                1.0,
                1.0
            ],
            "min": [
                -1.0,
                -1.0,
                -1.0
            ],
            "type": "VEC3"
        },
        {
            "bufferView": 1,
            "byteOffset": 1313760,
            "componentType": 5126,
            "count": 5448,
            "max": [
                38.68586730957031,
                18.561174392700197,
                16.066070556640626
            ],
            "min": [
                -38.68586730957031,
                -0.0602584183216095,
                -37.04163360595703
            ],
            "type": "VEC3"
        },
        {
            "bufferView": 0,
            "byteOffset": 140532,
            "componentType": 5123,
            "count": 288,
            "max": [
                286
            ],
            "min": [
                0
            ],
            "type": "SCALAR"
        },
        {
            "bufferView": 1,
            "byteOffset": 1379136,
            "componentType": 5126,
            "count": 287,
            "max": [
                0.7452893257141113,
                0.000017733040294842796,
                0.7452822923660278
            ],
            "min": [
                -0.7452883720397949,
                -0.000008698823876329698,
                -0.7452877163887024
            ],
            "type": "VEC3"
        },
        {
            "bufferView": 1,
            "byteOffset": 1382580,
            "componentType": 5126,
            "count": 287,
            "max": [
                36.26700210571289,
                32.32914352416992,
                9.28056526184082
            ],
            "min": [
                -36.26700973510742,
                18.711225509643556,
                -30.25613403320313
            ],
            "type": "VEC3"
        },
        {
            "bufferView": 0,
            "byteOffset": 141108,
            "componentType": 5123,
            "count": 528,
            "max": [
                475
            ],
            "min": [
                0
            ],
            "type": "SCALAR"
        },
        {
            "bufferView": 1,
            "byteOffset": 1386024,
            "componentType": 5126,
            "count": 476,
            "max": [
                0.9996612071990968,
                0.9999343156814576,
                1.0
            ],
            "min": [
                -0.9999842643737792,
                -0.9999949932098388,
                -1.0
            ],
            "type": "VEC3"
        },
        {
            "bufferView": 1,
            "byteOffset": 1391736,
            "componentType": 5126,
            "count": 476,
            "max": [
                18.071006774902345,
                34.903587341308597,
                -10.222644805908204
            ],
            "min": [
                -18.070858001708986,
                34.76861190795899,
                -10.75291919708252
            ],
            "type": "VEC3"
        },
        {
            "bufferView": 0,
            "byteOffset": 142164,
            "componentType": 5123,
            "count": 8610,
            "max": [
                7870
            ],
            "min": [
                0
            ],
            "type": "SCALAR"
        },
        {
            "bufferView": 1,
            "byteOffset": 1397448,
            "componentType": 5126,
            "count": 7871,
            "max": [
                1.0,
                1.0,
                1.0
            ],
            "min": [
                -1.0,
                -1.0,
                -1.0
            ],
            "type": "VEC3"
        },
        {
            "bufferView": 1,
            "byteOffset": 1491900,
            "componentType": 5126,
            "count": 7871,
            "max": [
                40.212059020996097,
                34.97420120239258,
                13.25360107421875
            ],
            "min": [
                -40.212059020996097,
                10.04305648803711,
                -34.22916412353516
            ],
            "type": "VEC3"
        },
        {
            "bufferView": 0,
            "byteOffset": 159384,
            "componentType": 5123,
            "count": 1185,
            "max": [
                1184
            ],
            "min": [
                0
            ],
            "type": "SCALAR"
        },
        {
            "bufferView": 1,
            "byteOffset": 1586352,
            "componentType": 5126,
            "count": 1185,
            "max": [
                0.7517437934875488,
                0.9699607491493224,
                0.7490437030792236
            ],
            "min": [
                -0.7517436742782593,
                0.6594467759132385,
                -0.7490442395210266
            ],
            "type": "VEC3"
        },
        {
            "bufferView": 1,
            "byteOffset": 1600572,
            "componentType": 5126,
            "count": 1185,
            "max": [
                40.01189041137695,
                31.820133209228517,
                13.055225372314454
            ],
            "min": [
                -40.01168441772461,
                11.654909133911133,
                -34.03056716918945
            ],
            "type": "VEC3"
        },
        {
            "bufferView": 2,
            "byteOffset": 3328,
            "componentType": 5126,
            "count": 1185,
            "max": [
                1.0,
                0.16176249086856846,
                1.0,
                1.0
            ],
            "min": [
                -0.07703862339258194,
                -0.1617621034383774,
                -0.9999993443489076,
                -1.0
            ],
            "type": "VEC4"
        },
        {
            "bufferView": 3,
            "byteOffset": 1664,
            "componentType": 5126,
            "count": 1185,
            "max": [
                4.036112785339356,
                3.898599863052368
            ],
            "min": [
                -4.405389785766602,
                -4.299750328063965
            ],
            "type": "VEC2"
        }
    ],
    "materials": [
        {
            "pbrMetallicRoughness": {
                "baseColorFactor": [
                    0.03946170583367348,
                    0.23076923191547397,
                    0.07948002964258194,
                    1.0
                ],
                "metallicFactor": 0.0,
                "roughnessFactor": 1.0
            },
            "name": "mat:_08_03_014029_cloud2:_86"
        },
        {
            "pbrMetallicRoughness": {
                "baseColorFactor": [
                    0.4363636672496796,
                    0.05018172413110733,
                    0.05018172413110733,
                    1.0
                ],
                "metallicFactor": 0.0,
                "roughnessFactor": 1.0
            },
            "name": "mat:phong1"
        },
        {
            "pbrMetallicRoughness": {
                "baseColorFactor": [
                    0.1450980454683304,
                    0.20000000298023225,
                    0.10196078568696976,
                    1.0
                ],
                "metallicFactor": 0.0,
                "roughnessFactor": 1.0
            },
            "name": "FBXASC091ColorFBXASC032F08FBXASC093FBXASC0450_ncl1_2"
        },
        {
            "pbrMetallicRoughness": {
                "baseColorFactor": [
                    1.0,
                    1.0,
                    1.0,
                    1.0
                ],
                "baseColorTexture": {
                    "index": 0
                },
                "metallicFactor": 0.0,
                "roughnessFactor": 1.0
            },
            "alphaMode": "BLEND",
            "name": "mat:_08_03_014029_cloud2:Fencing_Mesh_Blue42"
        },
        {
            "pbrMetallicRoughness": {
                "baseColorFactor": [
                    0.710099995136261,
                    0.42820000648498537,
                    0.1669999957084656,
                    1.0
                ],
                "metallicFactor": 0.0,
                "roughnessFactor": 1.0
            },
            "name": "FBXASC091ColorFBXASC032D05FBXASC093_ncl1_4"
        },
        {
            "pbrMetallicRoughness": {
                "baseColorFactor": [
                    0.0,
                    0.0,
                    0.0,
                    1.0
                ],
                "metallicFactor": 0.0,
                "roughnessFactor": 1.0
            },
            "name": "Concrete_Block_8x8_Gray1"
        },
        {
            "pbrMetallicRoughness": {
                "baseColorFactor": [
                    0.7529411911964417,
                    0.7529411911964417,
                    0.7529411911964417,
                    1.0
                ],
                "metallicFactor": 0.0,
                "roughnessFactor": 1.0
            },
            "name": "DefaultFBXASC032material_ncl1_4"
        },
        {
            "pbrMetallicRoughness": {
                "baseColorFactor": [
                    0.5081164836883545,
                    0.21987879276275636,
                    0.061580561101436618,
                    1.0
                ],
                "metallicFactor": 0.0,
                "roughnessFactor": 1.0
            },
            "name": "mat:_08_03_014029_cloud2:_Color_D04_94"
        },
        {
            "pbrMetallicRoughness": {
                "baseColorFactor": [
                    0.9098039269447328,
                    0.6980392336845398,
                    0.3725490272045136,
                    1.0
                ],
                "metallicFactor": 0.0,
                "roughnessFactor": 1.0
            },
            "name": "FBXASC091ColorFBXASC032D04FBXASC093FBXASC0450_ncl1_4"
        },
        {
            "pbrMetallicRoughness": {
                "baseColorFactor": [
                    0.5081164836883545,
                    0.21987879276275636,
                    0.061580561101436618,
                    1.0
                ],
                "metallicFactor": 0.0,
                "roughnessFactor": 1.0
            },
            "name": "mat:_08_03_014029_cloud2:_Color_D04_95"
        },
        {
            "pbrMetallicRoughness": {
                "baseColorFactor": [
                    1.0,
                    1.0,
                    1.0,
                    1.0
                ],
                "baseColorTexture": {
                    "index": 1
                },
                "metallicFactor": 0.0,
                "roughnessFactor": 1.0
            },
            "name": "mat:_08_03_014029_cloud2:roof0"
        }
    ],
    "textures": [
        {
            "sampler": 0,
            "source": 0
        },
        {
            "sampler": 0,
            "source": 1
        }
    ],
    "images": [
        {
            "uri": "2019_08_12_154746_.png"
        },
        {
            "uri": "2019_08_27_185044_haung.jpg"
        }
    ],
    "samplers": [
        {
            "magFilter": 9729,
            "minFilter": 9987,
            "wrapS": 10497,
            "wrapT": 10497
        }
    ],
    "bufferViews": [
        {
            "buffer": 0,
            "byteOffset": 1648224,
            "byteLength": 161754,
            "target": 34963
        },
        {
            "buffer": 0,
            "byteOffset": 22288,
            "byteLength": 1614792,
            "byteStride": 12,
            "target": 34962
        },
        {
            "buffer": 0,
            "byteOffset": 0,
            "byteLength": 22288,
            "byteStride": 16,
            "target": 34962
        },
        {
            "buffer": 0,
            "byteOffset": 1637080,
            "byteLength": 11144,
            "byteStride": 8,
            "target": 34962
        }
    ],
    "buffers": [
        {
            "byteLength": 1809978,
            "uri": "2019_08_08_135350_position_recolor0.bin"
        }
    ]
}
