{
    "asset": {
        "copyright": "(C)2019 ran",
        "generator": "Maya2glTF V0.9.10 b7c0eed",
        "version": "2.0"
    },
    "scenes": [
        {
            "nodes": [
                0
            ]
        }
    ],
    "scene": 0,
    "nodes": [
        {
            "children": [
                1
            ],
            "translation": [
                0.12550657987594605,
                -0.0,
                -0.09607039391994477
            ],
            "rotation": [
                0.0,
                0.7071067690849304,
                0.0,
                0.7071067690849304
            ],
            "scale": [
                0.1096721664071083,
                0.1096721664071083,
                0.1096721664071083
            ],
            "name": "polySurface2006"
        },
        {
            "mesh": 0,
            "translation": [
                -132.6456756591797,
                -0.000011830999937956222,
                -135.18466186523438
            ],
            "name": "polySurface2006:PIV"
        }
    ],
    "meshes": [
        {
            "primitives": [
                {
                    "attributes": {
                        "NORMAL": 1,
                        "POSITION": 2,
                        "TANGENT": 3,
                        "TEXCOORD_0": 4
                    },
                    "indices": 0,
                    "mode": 4,
                    "material": 0
                },
                {
                    "attributes": {
                        "NORMAL": 6,
                        "POSITION": 7,
                        "TANGENT": 8,
                        "TEXCOORD_0": 9
                    },
                    "indices": 5,
                    "mode": 4,
                    "material": 1
                },
                {
                    "attributes": {
                        "NORMAL": 11,
                        "POSITION": 12,
                        "TANGENT": 13,
                        "TEXCOORD_0": 14
                    },
                    "indices": 10,
                    "mode": 4,
                    "material": 2
                },
                {
                    "attributes": {
                        "NORMAL": 16,
                        "POSITION": 17,
                        "TANGENT": 18,
                        "TEXCOORD_0": 19
                    },
                    "indices": 15,
                    "mode": 4,
                    "material": 3
                },
                {
                    "attributes": {
                        "NORMAL": 21,
                        "POSITION": 22,
                        "TANGENT": 23,
                        "TEXCOORD_0": 24
                    },
                    "indices": 20,
                    "mode": 4,
                    "material": 4
                },
                {
                    "attributes": {
                        "NORMAL": 26,
                        "POSITION": 27,
                        "TANGENT": 28,
                        "TEXCOORD_0": 29
                    },
                    "indices": 25,
                    "mode": 4,
                    "material": 5
                },
                {
                    "attributes": {
                        "NORMAL": 31,
                        "POSITION": 32,
                        "TANGENT": 33,
                        "TEXCOORD_0": 34
                    },
                    "indices": 30,
                    "mode": 4,
                    "material": 6
                },
                {
                    "attributes": {
                        "NORMAL": 36,
                        "POSITION": 37,
                        "TANGENT": 38,
                        "TEXCOORD_0": 39
                    },
                    "indices": 35,
                    "mode": 4,
                    "material": 7
                }
            ],
            "name": "polySurface2006Shape"
        }
    ],
    "accessors": [
        {
            "bufferView": 0,
            "byteOffset": 0,
            "componentType": 5123,
            "count": 264,
            "max": [
                175
            ],
            "min": [
                0
            ],
            "type": "SCALAR"
        },
        {
            "bufferView": 1,
            "byteOffset": 0,
            "componentType": 5126,
            "count": 176,
            "max": [
                1.0,
                0.0,
                1.0
            ],
            "min": [
                -1.0,
                0.0,
                -1.0
            ],
            "type": "VEC3"
        },
        {
            "bufferView": 1,
            "byteOffset": 2112,
            "componentType": 5126,
            "count": 176,
            "max": [
                482.0000305175781,
                172.8000030517578,
                481.99993896484377
            ],
            "min": [
                -93.9999542236328,
                87.19999694824219,
                -94.0001220703125
            ],
            "type": "VEC3"
        },
        {
            "bufferView": 2,
            "byteOffset": 0,
            "componentType": 5126,
            "count": 176,
            "max": [
                1.0,
                0.0,
                1.0,
                1.0
            ],
            "min": [
                -1.0,
                0.0,
                -1.0,
                -1.0
            ],
            "type": "VEC4"
        },
        {
            "bufferView": 3,
            "byteOffset": 0,
            "componentType": 5126,
            "count": 176,
            "max": [
                115.85799407958985,
                0.04000002145767212
            ],
            "min": [
                -2.240000009536743,
                -4.239999771118164
            ],
            "type": "VEC2"
        },
        {
            "bufferView": 0,
            "byteOffset": 528,
            "componentType": 5123,
            "count": 54,
            "max": [
                32
            ],
            "min": [
                0
            ],
            "type": "SCALAR"
        },
        {
            "bufferView": 1,
            "byteOffset": 4224,
            "componentType": 5126,
            "count": 33,
            "max": [
                1.269185361252312e-7,
                1.0,
                5.636315242318056e-23
            ],
            "min": [
                -5.998878123136819e-7,
                1.0,
                -2.6640370456906569e-22
            ],
            "type": "VEC3"
        },
        {
            "bufferView": 1,
            "byteOffset": 4620,
            "componentType": 5126,
            "count": 33,
            "max": [
                546.8646240234375,
                47.99997329711914,
                546.8645629882813
            ],
            "min": [
                -158.86459350585938,
                47.99997329711914,
                -158.8646697998047
            ],
            "type": "VEC3"
        },
        {
            "bufferView": 2,
            "byteOffset": 2816,
            "componentType": 5126,
            "count": 33,
            "max": [
                4.440892098500626e-16,
                0.0,
                -1.0,
                1.0
            ],
            "min": [
                4.440892098500626e-16,
                0.0,
                -1.0,
                1.0
            ],
            "type": "VEC4"
        },
        {
            "bufferView": 3,
            "byteOffset": 1408,
            "componentType": 5126,
            "count": 33,
            "max": [
                1.0,
                0.9999999403953552
            ],
            "min": [
                0.0,
                0.0
            ],
            "type": "VEC2"
        },
        {
            "bufferView": 0,
            "byteOffset": 636,
            "componentType": 5123,
            "count": 16692,
            "max": [
                12981
            ],
            "min": [
                0
            ],
            "type": "SCALAR"
        },
        {
            "bufferView": 1,
            "byteOffset": 5016,
            "componentType": 5126,
            "count": 12982,
            "max": [
                1.0,
                1.0,
                1.0
            ],
            "min": [
                -1.0,
                -1.0,
                -1.0
            ],
            "type": "VEC3"
        },
        {
            "bufferView": 1,
            "byteOffset": 160800,
            "componentType": 5126,
            "count": 12982,
            "max": [
                489.99163818359377,
                603.3053588867188,
                490.0137634277344
            ],
            "min": [
                -101.99172973632813,
                48.0,
                -102.01385498046877
            ],
            "type": "VEC3"
        },
        {
            "bufferView": 2,
            "byteOffset": 3344,
            "componentType": 5126,
            "count": 12982,
            "max": [
                1.0,
                1.0,
                1.0,
                1.0
            ],
            "min": [
                -1.0,
                -1.0,
                -1.0,
                -1.0
            ],
            "type": "VEC4"
        },
        {
            "bufferView": 3,
            "byteOffset": 1672,
            "componentType": 5126,
            "count": 12982,
            "max": [
                209.30238342285157,
                115.37738800048828
            ],
            "min": [
                -158.76307678222657,
                -191.6718902587891
            ],
            "type": "VEC2"
        },
        {
            "bufferView": 0,
            "byteOffset": 34020,
            "componentType": 5123,
            "count": 59190,
            "max": [
                45936
            ],
            "min": [
                0
            ],
            "type": "SCALAR"
        },
        {
            "bufferView": 1,
            "byteOffset": 316584,
            "componentType": 5126,
            "count": 45937,
            "max": [
                1.0,
                1.0,
                1.0
            ],
            "min": [
                -1.0,
                -1.0,
                -1.0
            ],
            "type": "VEC3"
        },
        {
            "bufferView": 1,
            "byteOffset": 867828,
            "componentType": 5126,
            "count": 45937,
            "max": [
                594.4895629882813,
                698.2631225585938,
                602.4097900390625
            ],
            "min": [
                -206.1355438232422,
                183.97398376464845,
                -214.22787475585936
            ],
            "type": "VEC3"
        },
        {
            "bufferView": 2,
            "byteOffset": 211056,
            "componentType": 5126,
            "count": 45937,
            "max": [
                1.0,
                1.0,
                1.0,
                1.0
            ],
            "min": [
                -1.0,
                -1.0,
                -1.0,
                -1.0
            ],
            "type": "VEC4"
        },
        {
            "bufferView": 3,
            "byteOffset": 105528,
            "componentType": 5126,
            "count": 45937,
            "max": [
                1.621246337890625,
                2.057861328125
            ],
            "min": [
                -0.6227951049804688,
                -1.05767822265625
            ],
            "type": "VEC2"
        },
        {
            "bufferView": 0,
            "byteOffset": 152400,
            "componentType": 5123,
            "count": 56142,
            "max": [
                42500
            ],
            "min": [
                0
            ],
            "type": "SCALAR"
        },
        {
            "bufferView": 1,
            "byteOffset": 1419072,
            "componentType": 5126,
            "count": 42501,
            "max": [
                1.0,
                1.0,
                1.0
            ],
            "min": [
                -1.0,
                -1.0,
                -1.0
            ],
            "type": "VEC3"
        },
        {
            "bufferView": 1,
            "byteOffset": 1929084,
            "componentType": 5126,
            "count": 42501,
            "max": [
                548.324951171875,
                77.57280731201172,
                548.3818359375
            ],
            "min": [
                -258.0,
                -4.529039005673119e-15,
                -258.0000610351563
            ],
            "type": "VEC3"
        },
        {
            "bufferView": 2,
            "byteOffset": 946048,
            "componentType": 5126,
            "count": 42501,
            "max": [
                1.0,
                1.0,
                1.0,
                1.0
            ],
            "min": [
                -1.0,
                -1.0,
                -1.0,
                -1.0
            ],
            "type": "VEC4"
        },
        {
            "bufferView": 3,
            "byteOffset": 473024,
            "componentType": 5126,
            "count": 42501,
            "max": [
                27.55905532836914,
                28.55905532836914
            ],
            "min": [
                -27.55905532836914,
                -23.594532012939458
            ],
            "type": "VEC2"
        },
        {
            "bufferView": 0,
            "byteOffset": 264684,
            "componentType": 5123,
            "count": 16023,
            "max": [
                8159
            ],
            "min": [
                0
            ],
            "type": "SCALAR"
        },
        {
            "bufferView": 1,
            "byteOffset": 2439096,
            "componentType": 5126,
            "count": 8160,
            "max": [
                1.0,
                1.0,
                1.0
            ],
            "min": [
                -1.0,
                -1.0,
                -1.0
            ],
            "type": "VEC3"
        },
        {
            "bufferView": 1,
            "byteOffset": 2537016,
            "componentType": 5126,
            "count": 8160,
            "max": [
                546.0,
                465.3567504882813,
                545.9999389648438
            ],
            "min": [
                -158.00003051757813,
                183.97398376464845,
                -158.00006103515626
            ],
            "type": "VEC3"
        },
        {
            "bufferView": 2,
            "byteOffset": 1626064,
            "componentType": 5126,
            "count": 8160,
            "max": [
                1.0,
                1.0,
                1.0,
                1.0
            ],
            "min": [
                -1.0,
                -1.0,
                -1.0,
                -1.0
            ],
            "type": "VEC4"
        },
        {
            "bufferView": 3,
            "byteOffset": 813032,
            "componentType": 5126,
            "count": 8160,
            "max": [
                645.6693115234375,
                48.24409484863281
            ],
            "min": [
                -645.6693115234375,
                -644.6693115234375
            ],
            "type": "VEC2"
        },
        {
            "bufferView": 0,
            "byteOffset": 296730,
            "componentType": 5123,
            "count": 12429,
            "max": [
                12388
            ],
            "min": [
                0
            ],
            "type": "SCALAR"
        },
        {
            "bufferView": 1,
            "byteOffset": 2634936,
            "componentType": 5126,
            "count": 12389,
            "max": [
                0.7761011719703674,
                0.9760221838951112,
                0.7683843970298767
            ],
            "min": [
                -0.7683877348899841,
                0.6306084394454956,
                -0.7760937809944153
            ],
            "type": "VEC3"
        },
        {
            "bufferView": 1,
            "byteOffset": 2783604,
            "componentType": 5126,
            "count": 12389,
            "max": [
                593.5106201171875,
                616.943115234375,
                593.6051635742188
            ],
            "min": [
                -205.57412719726566,
                247.58726501464845,
                -205.47955322265626
            ],
            "type": "VEC3"
        },
        {
            "bufferView": 2,
            "byteOffset": 1756624,
            "componentType": 5126,
            "count": 12389,
            "max": [
                1.0,
                0.3021317422389984,
                1.0,
                1.0
            ],
            "min": [
                -1.0,
                -0.2916485071182251,
                -1.0,
                1.0
            ],
            "type": "VEC4"
        },
        {
            "bufferView": 3,
            "byteOffset": 878312,
            "componentType": 5126,
            "count": 12389,
            "max": [
                6.22249698638916,
                2.6972925662994386
            ],
            "min": [
                -5.71281623840332,
                -1.9861581325531009
            ],
            "type": "VEC2"
        },
        {
            "bufferView": 0,
            "byteOffset": 321588,
            "componentType": 5123,
            "count": 456,
            "max": [
                303
            ],
            "min": [
                0
            ],
            "type": "SCALAR"
        },
        {
            "bufferView": 1,
            "byteOffset": 2932272,
            "componentType": 5126,
            "count": 304,
            "max": [
                1.0,
                1.0,
                1.0
            ],
            "min": [
                -1.0,
                -1.0,
                -1.0
            ],
            "type": "VEC3"
        },
        {
            "bufferView": 1,
            "byteOffset": 2935920,
            "componentType": 5126,
            "count": 304,
            "max": [
                486.00006103515627,
                84.0,
                485.99993896484377
            ],
            "min": [
                -97.99996948242188,
                47.99995422363281,
                -98.00006103515624
            ],
            "type": "VEC3"
        },
        {
            "bufferView": 2,
            "byteOffset": 1954848,
            "componentType": 5126,
            "count": 304,
            "max": [
                1.0,
                1.0,
                0.00006725763523718342,
                1.0
            ],
            "min": [
                -1.0,
                -1.0,
                -1.0,
                1.0
            ],
            "type": "VEC4"
        },
        {
            "bufferView": 3,
            "byteOffset": 977424,
            "componentType": 5126,
            "count": 304,
            "max": [
                0.5865625739097595,
                0.9578003287315368
            ],
            "min": [
                -0.4838889837265015,
                -0.2206683158874512
            ],
            "type": "VEC2"
        }
    ],
    "materials": [
        {
            "pbrMetallicRoughness": {
                "baseColorFactor": [
                    1.0,
                    1.0,
                    1.0,
                    1.0
                ],
                "baseColorTexture": {
                    "index": 0
                },
                "metallicFactor": 0.0,
                "roughnessFactor": 1.0
            },
            "alphaMode": "BLEND",
            "name": "_08_03_014029_cloud2:Fencing_Mesh_Blue42"
        },
        {
            "pbrMetallicRoughness": {
                "baseColorFactor": [
                    0.7552447319030762,
                    0.7552447319030762,
                    0.7552447319030762,
                    1.0
                ],
                "metallicFactor": 0.0,
                "roughnessFactor": 1.0
            },
            "name": "_08_03_014029_cloud2:_Color_M00__246"
        },
        {
            "pbrMetallicRoughness": {
                "baseColorFactor": [
                    0.4363636672496796,
                    0.05018172413110733,
                    0.05018172413110733,
                    1.0
                ],
                "metallicFactor": 0.0,
                "roughnessFactor": 1.0
            },
            "name": "phong1"
        },
        {
            "pbrMetallicRoughness": {
                "baseColorFactor": [
                    0.5081164836883545,
                    0.21987879276275636,
                    0.061580561101436618,
                    1.0
                ],
                "metallicFactor": 0.0,
                "roughnessFactor": 1.0
            },
            "name": "_08_03_014029_cloud2:_Color_D04_94"
        },
        {
            "pbrMetallicRoughness": {
                "baseColorFactor": [
                    0.800000011920929,
                    0.800000011920929,
                    0.800000011920929,
                    1.0
                ],
                "metallicFactor": 0.0,
                "roughnessFactor": 1.0
            },
            "name": "lambert2"
        },
        {
            "pbrMetallicRoughness": {
                "baseColorFactor": [
                    0.03946170583367348,
                    0.23076923191547397,
                    0.07948002964258194,
                    1.0
                ],
                "metallicFactor": 0.0,
                "roughnessFactor": 1.0
            },
            "name": "_08_03_014029_cloud2:_86"
        },
        {
            "pbrMetallicRoughness": {
                "baseColorFactor": [
                    1.0,
                    1.0,
                    1.0,
                    1.0
                ],
                "baseColorTexture": {
                    "index": 1
                },
                "metallicFactor": 0.0,
                "roughnessFactor": 1.0
            },
            "name": "_08_03_014029_cloud2:roof0"
        },
        {
            "pbrMetallicRoughness": {
                "baseColorFactor": [
                    0.3776223659515381,
                    0.3776223659515381,
                    0.3776223659515381,
                    1.0
                ],
                "metallicFactor": 0.0,
                "roughnessFactor": 1.0
            },
            "name": "_08_03_014029_cloud2:Color_M04"
        }
    ],
    "textures": [
        {
            "sampler": 0,
            "source": 0
        },
        {
            "sampler": 0,
            "source": 1
        }
    ],
    "images": [
        {
            "uri": "2019_08_12_154746_.png"
        },
        {
            "uri": "2019_08_12_154534_.jpg"
        }
    ],
    "samplers": [
        {
            "magFilter": 9729,
            "minFilter": 9987,
            "wrapS": 10497,
            "wrapT": 10497
        }
    ],
    "bufferViews": [
        {
            "buffer": 0,
            "byteOffset": 5879136,
            "byteLength": 322500,
            "target": 34963
        },
        {
            "buffer": 0,
            "byteOffset": 1959712,
            "byteLength": 2939568,
            "byteStride": 12,
            "target": 34962
        },
        {
            "buffer": 0,
            "byteOffset": 0,
            "byteLength": 1959712,
            "byteStride": 16,
            "target": 34962
        },
        {
            "buffer": 0,
            "byteOffset": 4899280,
            "byteLength": 979856,
            "byteStride": 8,
            "target": 34962
        }
    ],
    "buffers": [
        {
            "byteLength": 6201636,
            "uri": "2019_08_08_135350_position_recolor0.bin"
        }
    ]
}
