{
    "asset": {
        "copyright": "(C)2019 ran",
        "generator": "Maya2glTF V0.9.10 b7c0eed",
        "version": "2.0"
    },
    "scenes": [
        {
            "nodes": [
                2,
                0
            ]
        }
    ],
    "scene": 0,
    "nodes": [
        {
            "children": [
                1
            ],
            "translation": [
                0.000061034999816911298,
                -0.00005062100171926432,
                -0.00003051800013054162
            ],
            "scale": [
                0.018664557486772538,
                0.018664557486772538,
                0.018664557486772538
            ],
            "name": "taihedian"
        },
        {
            "mesh": 0,
            "translation": [
                1091.603515625,
                -4.9999518394470219,
                -2352.43408203125
            ],
            "name": "taihedian:PIV"
        },
        {
            "mesh": 1,
            "name": "ground"
        }
    ],
    "meshes": [
        {
            "primitives": [
                {
                    "attributes": {
                        "NORMAL": 1,
                        "POSITION": 2
                    },
                    "indices": 0,
                    "mode": 4,
                    "material": 0
                },
                {
                    "attributes": {
                        "NORMAL": 4,
                        "POSITION": 5,
                        "TANGENT": 6,
                        "TEXCOORD_0": 7
                    },
                    "indices": 3,
                    "mode": 4,
                    "material": 1
                },
                {
                    "attributes": {
                        "NORMAL": 9,
                        "POSITION": 10
                    },
                    "indices": 8,
                    "mode": 4,
                    "material": 2
                },
                {
                    "attributes": {
                        "NORMAL": 12,
                        "POSITION": 13
                    },
                    "indices": 11,
                    "mode": 4,
                    "material": 3
                },
                {
                    "attributes": {
                        "NORMAL": 15,
                        "POSITION": 16
                    },
                    "indices": 14,
                    "mode": 4,
                    "material": 4
                },
                {
                    "attributes": {
                        "NORMAL": 18,
                        "POSITION": 19
                    },
                    "indices": 17,
                    "mode": 4,
                    "material": 5
                },
                {
                    "attributes": {
                        "NORMAL": 21,
                        "POSITION": 22,
                        "TANGENT": 23,
                        "TEXCOORD_0": 24
                    },
                    "indices": 20,
                    "mode": 4,
                    "material": 6
                },
                {
                    "attributes": {
                        "NORMAL": 26,
                        "POSITION": 27
                    },
                    "indices": 25,
                    "mode": 4,
                    "material": 7
                }
            ],
            "name": "taihedianShape"
        },
        {
            "primitives": [
                {
                    "attributes": {
                        "NORMAL": 29,
                        "POSITION": 30,
                        "TANGENT": 31,
                        "TEXCOORD_0": 32
                    },
                    "indices": 28,
                    "mode": 4,
                    "material": 8
                }
            ],
            "name": "groundShape"
        }
    ],
    "accessors": [
        {
            "bufferView": 0,
            "byteOffset": 0,
            "componentType": 5123,
            "count": 5283,
            "max": [
                4615
            ],
            "min": [
                0
            ],
            "type": "SCALAR"
        },
        {
            "bufferView": 1,
            "byteOffset": 0,
            "componentType": 5126,
            "count": 4616,
            "max": [
                0.9999999403953552,
                0.9999999403953552,
                0.9999999403953552
            ],
            "min": [
                -0.9999999403953552,
                -0.9999999403953552,
                -0.9999999403953552
            ],
            "type": "VEC3"
        },
        {
            "bufferView": 1,
            "byteOffset": 55392,
            "componentType": 5126,
            "count": 4616,
            "max": [
                1303.597900390625,
                2204.1796875,
                3487.98291015625
            ],
            "min": [
                -3487.231689453125,
                104.99999237060549,
                1217.2315673828126
            ],
            "type": "VEC3"
        },
        {
            "bufferView": 0,
            "byteOffset": 10566,
            "componentType": 5123,
            "count": 783,
            "max": [
                780
            ],
            "min": [
                0
            ],
            "type": "SCALAR"
        },
        {
            "bufferView": 1,
            "byteOffset": 110784,
            "componentType": 5126,
            "count": 781,
            "max": [
                0.5644097924232483,
                0.971122145652771,
                0.9999999403953552
            ],
            "min": [
                -0.5645825862884522,
                0.0,
                -0.9999999403953552
            ],
            "type": "VEC3"
        },
        {
            "bufferView": 1,
            "byteOffset": 120156,
            "componentType": 5126,
            "count": 781,
            "max": [
                1568.4033203125,
                2204.480224609375,
                3752.467041015625
            ],
            "min": [
                -3751.609130859375,
                951.458984375,
                952.4339599609376
            ],
            "type": "VEC3"
        },
        {
            "bufferView": 2,
            "byteOffset": 0,
            "componentType": 5126,
            "count": 781,
            "max": [
                1.0,
                0.17227090895175937,
                1.0,
                1.0
            ],
            "min": [
                -0.08581146597862244,
                -0.1722610592842102,
                -0.0898958221077919,
                -1.0
            ],
            "type": "VEC4"
        },
        {
            "bufferView": 3,
            "byteOffset": 0,
            "componentType": 5126,
            "count": 781,
            "max": [
                2.6091480255126959,
                3.595424175262451
            ],
            "min": [
                -1.7420918941497806,
                0.16472429037094117
            ],
            "type": "VEC2"
        },
        {
            "bufferView": 0,
            "byteOffset": 12132,
            "componentType": 5123,
            "count": 4041,
            "max": [
                3632
            ],
            "min": [
                0
            ],
            "type": "SCALAR"
        },
        {
            "bufferView": 1,
            "byteOffset": 129528,
            "componentType": 5126,
            "count": 3633,
            "max": [
                0.9999999403953552,
                0.9999999403953552,
                0.9999999403953552
            ],
            "min": [
                -0.9999999403953552,
                -0.9999999403953552,
                -0.9999999403953552
            ],
            "type": "VEC3"
        },
        {
            "bufferView": 1,
            "byteOffset": 173124,
            "componentType": 5126,
            "count": 3633,
            "max": [
                1418.396240234375,
                608.7396850585938,
                4002.43408203125
            ],
            "min": [
                -3601.60400390625,
                -0.00000968933181866305,
                702.4340209960938
            ],
            "type": "VEC3"
        },
        {
            "bufferView": 0,
            "byteOffset": 20214,
            "componentType": 5123,
            "count": 54633,
            "max": [
                41908
            ],
            "min": [
                0
            ],
            "type": "SCALAR"
        },
        {
            "bufferView": 1,
            "byteOffset": 216720,
            "componentType": 5126,
            "count": 41909,
            "max": [
                0.9999999403953552,
                0.9999999403953552,
                0.9999999403953552
            ],
            "min": [
                -0.9999999403953552,
                -0.9999999403953552,
                -0.9999999403953552
            ],
            "type": "VEC3"
        },
        {
            "bufferView": 1,
            "byteOffset": 719628,
            "componentType": 5126,
            "count": 41909,
            "max": [
                1308.3961181640626,
                2068.31591796875,
                3492.433837890625
            ],
            "min": [
                -3491.603759765625,
                104.99999237060549,
                1212.433837890625
            ],
            "type": "VEC3"
        },
        {
            "bufferView": 0,
            "byteOffset": 129480,
            "componentType": 5123,
            "count": 5253,
            "max": [
                4812
            ],
            "min": [
                0
            ],
            "type": "SCALAR"
        },
        {
            "bufferView": 1,
            "byteOffset": 1222536,
            "componentType": 5126,
            "count": 4813,
            "max": [
                0.9999999403953552,
                0.9999999403953552,
                1.0
            ],
            "min": [
                -0.9999999403953552,
                -0.9999999403953552,
                -0.9999999403953552
            ],
            "type": "VEC3"
        },
        {
            "bufferView": 1,
            "byteOffset": 1280292,
            "componentType": 5126,
            "count": 4813,
            "max": [
                1581.0010986328126,
                2441.606201171875,
                3765.040283203125
            ],
            "min": [
                -3764.2080078125,
                264.9999694824219,
                939.8297729492188
            ],
            "type": "VEC3"
        },
        {
            "bufferView": 0,
            "byteOffset": 139986,
            "componentType": 5123,
            "count": 72,
            "max": [
                55
            ],
            "min": [
                0
            ],
            "type": "SCALAR"
        },
        {
            "bufferView": 1,
            "byteOffset": 1338048,
            "componentType": 5126,
            "count": 56,
            "max": [
                0.9999999403953552,
                0.9999999403953552,
                0.9999999403953552
            ],
            "min": [
                -0.9999999403953552,
                0.0,
                -0.000013020834558119532
            ],
            "type": "VEC3"
        },
        {
            "bufferView": 1,
            "byteOffset": 1338720,
            "componentType": 5126,
            "count": 56,
            "max": [
                1258.395751953125,
                255.0,
                3202.433837890625
            ],
            "min": [
                -3441.603759765625,
                104.99999237060549,
                3192.433837890625
            ],
            "type": "VEC3"
        },
        {
            "bufferView": 0,
            "byteOffset": 140130,
            "componentType": 5123,
            "count": 192,
            "max": [
                127
            ],
            "min": [
                0
            ],
            "type": "SCALAR"
        },
        {
            "bufferView": 1,
            "byteOffset": 1339392,
            "componentType": 5126,
            "count": 128,
            "max": [
                0.0,
                0.0,
                0.9999999403953552
            ],
            "min": [
                0.0,
                0.0,
                0.9999999403953552
            ],
            "type": "VEC3"
        },
        {
            "bufferView": 1,
            "byteOffset": 1340928,
            "componentType": 5126,
            "count": 128,
            "max": [
                1208.3958740234376,
                568.7396850585938,
                3192.433837890625
            ],
            "min": [
                -3391.60400390625,
                304.9999694824219,
                3192.433837890625
            ],
            "type": "VEC3"
        },
        {
            "bufferView": 2,
            "byteOffset": 12496,
            "componentType": 5126,
            "count": 128,
            "max": [
                0.9999999403953552,
                0.0,
                6.630982869201508e-17,
                1.0
            ],
            "min": [
                0.9999999403953552,
                0.0,
                6.630982869201508e-17,
                1.0
            ],
            "type": "VEC4"
        },
        {
            "bufferView": 3,
            "byteOffset": 6248,
            "componentType": 5126,
            "count": 128,
            "max": [
                1.4024194478988648,
                2.682271957397461
            ],
            "min": [
                -0.4024197459220886,
                -1.6822726726531985
            ],
            "type": "VEC2"
        },
        {
            "bufferView": 0,
            "byteOffset": 140514,
            "componentType": 5123,
            "count": 38910,
            "max": [
                29679
            ],
            "min": [
                0
            ],
            "type": "SCALAR"
        },
        {
            "bufferView": 1,
            "byteOffset": 1342464,
            "componentType": 5126,
            "count": 29680,
            "max": [
                0.9999999403953552,
                0.9999999403953552,
                1.0
            ],
            "min": [
                -0.9999999403953552,
                -1.0,
                -1.0
            ],
            "type": "VEC3"
        },
        {
            "bufferView": 1,
            "byteOffset": 1698624,
            "componentType": 5126,
            "count": 29680,
            "max": [
                1418.39599609375,
                1484.9998779296876,
                3602.43408203125
            ],
            "min": [
                -3601.60400390625,
                618.7396850585938,
                1102.4339599609376
            ],
            "type": "VEC3"
        },
        {
            "bufferView": 0,
            "byteOffset": 218334,
            "componentType": 5123,
            "count": 6,
            "max": [
                3
            ],
            "min": [
                0
            ],
            "type": "SCALAR"
        },
        {
            "bufferView": 1,
            "byteOffset": 2054784,
            "componentType": 5126,
            "count": 4,
            "max": [
                0.0,
                1.0,
                2.220446049250313e-16
            ],
            "min": [
                0.0,
                1.0,
                2.220446049250313e-16
            ],
            "type": "VEC3"
        },
        {
            "bufferView": 1,
            "byteOffset": 2054832,
            "componentType": 5126,
            "count": 4,
            "max": [
                150.0,
                3.3306690738754699e-14,
                150.0
            ],
            "min": [
                -150.0,
                -3.3306690738754699e-14,
                -150.0
            ],
            "type": "VEC3"
        },
        {
            "bufferView": 2,
            "byteOffset": 14544,
            "componentType": 5126,
            "count": 4,
            "max": [
                1.0,
                -0.0,
                0.0,
                1.0
            ],
            "min": [
                1.0,
                -0.0,
                0.0,
                1.0
            ],
            "type": "VEC4"
        },
        {
            "bufferView": 3,
            "byteOffset": 7272,
            "componentType": 5126,
            "count": 4,
            "max": [
                1.0,
                1.0
            ],
            "min": [
                0.0,
                0.0
            ],
            "type": "VEC2"
        }
    ],
    "materials": [
        {
            "pbrMetallicRoughness": {
                "baseColorFactor": [
                    0.4363636672496796,
                    0.05018172413110733,
                    0.05018172413110733,
                    1.0
                ],
                "metallicFactor": 0.0,
                "roughnessFactor": 1.0
            },
            "name": "mat:phong2"
        },
        {
            "pbrMetallicRoughness": {
                "baseColorFactor": [
                    1.0,
                    1.0,
                    1.0,
                    1.0
                ],
                "baseColorTexture": {
                    "index": 0
                },
                "metallicFactor": 0.0,
                "roughnessFactor": 1.0
            },
            "name": "mat:_08_03_014029_cloud2:roof1"
        },
        {
            "pbrMetallicRoughness": {
                "baseColorFactor": [
                    0.7552447319030762,
                    0.7552447319030762,
                    0.7552447319030762,
                    1.0
                ],
                "metallicFactor": 0.0,
                "roughnessFactor": 1.0
            },
            "name": "mat:_08_03_014029_cloud2:_Color_M00__247"
        },
        {
            "pbrMetallicRoughness": {
                "baseColorFactor": [
                    0.9960784316062928,
                    0.7568627595901489,
                    0.4588235318660736,
                    1.0
                ],
                "metallicFactor": 0.0,
                "roughnessFactor": 1.0
            },
            "name": "FBXASC091ColorFBXASC032D05FBXASC093"
        },
        {
            "pbrMetallicRoughness": {
                "baseColorFactor": [
                    0.5081164836883545,
                    0.21987879276275636,
                    0.061580561101436618,
                    1.0
                ],
                "metallicFactor": 0.0,
                "roughnessFactor": 1.0
            },
            "name": "mat:_08_03_014029_cloud2:_Color_D04_95"
        },
        {
            "pbrMetallicRoughness": {
                "baseColorFactor": [
                    0.4696774184703827,
                    0.4696774184703827,
                    0.4696774184703827,
                    1.0
                ],
                "metallicFactor": 0.0,
                "roughnessFactor": 1.0
            },
            "name": "mat:lambert3"
        },
        {
            "pbrMetallicRoughness": {
                "baseColorFactor": [
                    1.0,
                    1.0,
                    1.0,
                    1.0
                ],
                "baseColorTexture": {
                    "index": 1
                },
                "metallicFactor": 0.0,
                "roughnessFactor": 1.0
            },
            "alphaMode": "BLEND",
            "name": "mat:_08_03_014029_cloud2:Fencing_Mesh_Blue43"
        },
        {
            "pbrMetallicRoughness": {
                "baseColorFactor": [
                    0.03946170583367348,
                    0.23076923191547397,
                    0.07948002964258194,
                    1.0
                ],
                "metallicFactor": 0.0,
                "roughnessFactor": 1.0
            },
            "name": "mat:_08_03_014029_cloud2:_87"
        },
        {
            "pbrMetallicRoughness": {
                "baseColorFactor": [
                    0.4000000059604645,
                    0.4000000059604645,
                    0.4000000059604645,
                    1.0
                ],
                "metallicFactor": 0.0,
                "roughnessFactor": 1.0
            },
            "name": "lambert1"
        }
    ],
    "textures": [
        {
            "sampler": 0,
            "source": 0
        },
        {
            "sampler": 0,
            "source": 1
        }
    ],
    "images": [
        {
            "uri": "2019_08_24_143443_roof.jpg"
        },
        {
            "uri": "2019_08_12_154746_.png"
        }
    ],
    "samplers": [
        {
            "magFilter": 9729,
            "minFilter": 9987,
            "wrapS": 10497,
            "wrapT": 10497
        }
    ],
    "bufferViews": [
        {
            "buffer": 0,
            "byteOffset": 2076792,
            "byteLength": 218346,
            "target": 34963
        },
        {
            "buffer": 0,
            "byteOffset": 14608,
            "byteLength": 2054880,
            "byteStride": 12,
            "target": 34962
        },
        {
            "buffer": 0,
            "byteOffset": 0,
            "byteLength": 14608,
            "byteStride": 16,
            "target": 34962
        },
        {
            "buffer": 0,
            "byteOffset": 2069488,
            "byteLength": 7304,
            "byteStride": 8,
            "target": 34962
        }
    ],
    "buffers": [
        {
            "byteLength": 2295138,
            "uri": "2019_08_08_135350_position_recolor0.bin"
        }
    ]
}
