{
    "asset": {
        "copyright": "(C)2019 ran",
        "generator": "Maya2glTF V0.9.10 b7c0eed",
        "version": "2.0"
    },
    "scenes": [
        {
            "nodes": [
                1,
                0
            ]
        }
    ],
    "scene": 0,
    "nodes": [
        {
            "mesh": 0,
            "name": "ground"
        },
        {
            "mesh": 1,
            "name": "baohe_f"
        }
    ],
    "meshes": [
        {
            "primitives": [
                {
                    "attributes": {
                        "NORMAL": 1,
                        "POSITION": 2,
                        "TANGENT": 3,
                        "TEXCOORD_0": 4
                    },
                    "indices": 0,
                    "mode": 4,
                    "material": 0
                }
            ],
            "name": "groundShape"
        },
        {
            "primitives": [
                {
                    "attributes": {
                        "NORMAL": 6,
                        "POSITION": 7
                    },
                    "indices": 5,
                    "mode": 4,
                    "material": 1
                },
                {
                    "attributes": {
                        "NORMAL": 9,
                        "POSITION": 10
                    },
                    "indices": 8,
                    "mode": 4,
                    "material": 2
                },
                {
                    "attributes": {
                        "NORMAL": 12,
                        "POSITION": 13
                    },
                    "indices": 11,
                    "mode": 4,
                    "material": 3
                },
                {
                    "attributes": {
                        "NORMAL": 15,
                        "POSITION": 16,
                        "TANGENT": 17,
                        "TEXCOORD_0": 18
                    },
                    "indices": 14,
                    "mode": 4,
                    "material": 4
                },
                {
                    "attributes": {
                        "NORMAL": 20,
                        "POSITION": 21
                    },
                    "indices": 19,
                    "mode": 4,
                    "material": 5
                },
                {
                    "attributes": {
                        "NORMAL": 23,
                        "POSITION": 24
                    },
                    "indices": 22,
                    "mode": 4,
                    "material": 6
                },
                {
                    "attributes": {
                        "NORMAL": 26,
                        "POSITION": 27
                    },
                    "indices": 25,
                    "mode": 4,
                    "material": 7
                },
                {
                    "attributes": {
                        "NORMAL": 29,
                        "POSITION": 30
                    },
                    "indices": 28,
                    "mode": 4,
                    "material": 8
                },
                {
                    "attributes": {
                        "NORMAL": 32,
                        "POSITION": 33
                    },
                    "indices": 31,
                    "mode": 4,
                    "material": 9
                },
                {
                    "attributes": {
                        "NORMAL": 35,
                        "POSITION": 36,
                        "TANGENT": 37,
                        "TEXCOORD_0": 38
                    },
                    "indices": 34,
                    "mode": 4,
                    "material": 10
                }
            ],
            "name": "baohe_fShape"
        }
    ],
    "accessors": [
        {
            "bufferView": 0,
            "byteOffset": 0,
            "componentType": 5123,
            "count": 6,
            "max": [
                3
            ],
            "min": [
                0
            ],
            "type": "SCALAR"
        },
        {
            "bufferView": 1,
            "byteOffset": 0,
            "componentType": 5126,
            "count": 4,
            "max": [
                0.0,
                1.0,
                2.220446049250313e-16
            ],
            "min": [
                0.0,
                1.0,
                2.220446049250313e-16
            ],
            "type": "VEC3"
        },
        {
            "bufferView": 1,
            "byteOffset": 48,
            "componentType": 5126,
            "count": 4,
            "max": [
                150.0,
                3.3306690738754699e-14,
                150.0
            ],
            "min": [
                -150.0,
                -3.3306690738754699e-14,
                -150.0
            ],
            "type": "VEC3"
        },
        {
            "bufferView": 2,
            "byteOffset": 0,
            "componentType": 5126,
            "count": 4,
            "max": [
                1.0,
                -0.0,
                0.0,
                1.0
            ],
            "min": [
                1.0,
                -0.0,
                0.0,
                1.0
            ],
            "type": "VEC4"
        },
        {
            "bufferView": 3,
            "byteOffset": 0,
            "componentType": 5126,
            "count": 4,
            "max": [
                1.0,
                1.0
            ],
            "min": [
                0.0,
                0.0
            ],
            "type": "VEC2"
        },
        {
            "bufferView": 0,
            "byteOffset": 12,
            "componentType": 5123,
            "count": 6402,
            "max": [
                5380
            ],
            "min": [
                0
            ],
            "type": "SCALAR"
        },
        {
            "bufferView": 1,
            "byteOffset": 96,
            "componentType": 5126,
            "count": 5381,
            "max": [
                1.0,
                1.0,
                1.0
            ],
            "min": [
                -1.0,
                -1.0,
                -1.0
            ],
            "type": "VEC3"
        },
        {
            "bufferView": 1,
            "byteOffset": 64668,
            "componentType": 5126,
            "count": 5381,
            "max": [
                38.68586730957031,
                18.561174392700197,
                16.407302856445314
            ],
            "min": [
                -38.68586730957031,
                -0.0598311722278595,
                -37.62384796142578
            ],
            "type": "VEC3"
        },
        {
            "bufferView": 0,
            "byteOffset": 12816,
            "componentType": 5123,
            "count": 11466,
            "max": [
                10284
            ],
            "min": [
                0
            ],
            "type": "SCALAR"
        },
        {
            "bufferView": 1,
            "byteOffset": 129240,
            "componentType": 5126,
            "count": 10285,
            "max": [
                1.0,
                1.0,
                1.0
            ],
            "min": [
                -1.0,
                -1.0,
                -1.0
            ],
            "type": "VEC3"
        },
        {
            "bufferView": 1,
            "byteOffset": 252660,
            "componentType": 5126,
            "count": 10285,
            "max": [
                39.12775802612305,
                18.561174392700197,
                12.169363975524905
            ],
            "min": [
                -39.12776565551758,
                7.517106533050537,
                -32.66286087036133
            ],
            "type": "VEC3"
        },
        {
            "bufferView": 0,
            "byteOffset": 35748,
            "componentType": 5123,
            "count": 96,
            "max": [
                81
            ],
            "min": [
                0
            ],
            "type": "SCALAR"
        },
        {
            "bufferView": 1,
            "byteOffset": 376080,
            "componentType": 5126,
            "count": 82,
            "max": [
                0.0,
                1.0,
                0.00002463114833517466
            ],
            "min": [
                0.0,
                -1.0,
                -0.000005000575583835598
            ],
            "type": "VEC3"
        },
        {
            "bufferView": 1,
            "byteOffset": 377064,
            "componentType": 5126,
            "count": 82,
            "max": [
                12.377762794494628,
                17.03462791442871,
                5.673289775848389
            ],
            "min": [
                -12.384881019592286,
                15.4277400970459,
                4.524806022644043
            ],
            "type": "VEC3"
        },
        {
            "bufferView": 0,
            "byteOffset": 35940,
            "componentType": 5123,
            "count": 312,
            "max": [
                207
            ],
            "min": [
                0
            ],
            "type": "SCALAR"
        },
        {
            "bufferView": 1,
            "byteOffset": 378048,
            "componentType": 5126,
            "count": 208,
            "max": [
                0.0,
                0.0,
                1.0
            ],
            "min": [
                0.0,
                0.0,
                -1.0
            ],
            "type": "VEC3"
        },
        {
            "bufferView": 1,
            "byteOffset": 380544,
            "componentType": 5126,
            "count": 208,
            "max": [
                35.3515739440918,
                7.030142307281494,
                5.099047660827637
            ],
            "min": [
                -35.3515739440918,
                4.177913188934326,
                -26.07461738586426
            ],
            "type": "VEC3"
        },
        {
            "bufferView": 2,
            "byteOffset": 64,
            "componentType": 5126,
            "count": 208,
            "max": [
                1.0,
                -0.0,
                0.0,
                1.0
            ],
            "min": [
                1.0,
                -0.0,
                0.0,
                1.0
            ],
            "type": "VEC4"
        },
        {
            "bufferView": 3,
            "byteOffset": 32,
            "componentType": 5126,
            "count": 208,
            "max": [
                1.7403264045715333,
                2.6214213371276857
            ],
            "min": [
                -0.7403257489204407,
                -1.572066307067871
            ],
            "type": "VEC2"
        },
        {
            "bufferView": 0,
            "byteOffset": 36564,
            "componentType": 5123,
            "count": 3924,
            "max": [
                3529
            ],
            "min": [
                0
            ],
            "type": "SCALAR"
        },
        {
            "bufferView": 1,
            "byteOffset": 383040,
            "componentType": 5126,
            "count": 3530,
            "max": [
                1.0,
                1.0,
                1.0
            ],
            "min": [
                -1.0,
                -1.0,
                -1.0
            ],
            "type": "VEC3"
        },
        {
            "bufferView": 1,
            "byteOffset": 425400,
            "componentType": 5126,
            "count": 3530,
            "max": [
                37.47320556640625,
                15.427751541137696,
                10.03273868560791
            ],
            "min": [
                -37.44953918457031,
                1.2051670551300049,
                -31.008302688598634
            ],
            "type": "VEC3"
        },
        {
            "bufferView": 0,
            "byteOffset": 44412,
            "componentType": 5123,
            "count": 24,
            "max": [
                15
            ],
            "min": [
                0
            ],
            "type": "SCALAR"
        },
        {
            "bufferView": 1,
            "byteOffset": 467760,
            "componentType": 5126,
            "count": 16,
            "max": [
                1.0,
                0.0,
                0.0
            ],
            "min": [
                -1.0,
                0.0,
                -1.0
            ],
            "type": "VEC3"
        },
        {
            "bufferView": 1,
            "byteOffset": 467952,
            "componentType": 5126,
            "count": 16,
            "max": [
                36.87812042236328,
                3.374468088150025,
                5.099047660827637
            ],
            "min": [
                -36.91667938232422,
                1.205167293548584,
                -26.07461738586426
            ],
            "type": "VEC3"
        },
        {
            "bufferView": 0,
            "byteOffset": 44460,
            "componentType": 5123,
            "count": 47907,
            "max": [
                37966
            ],
            "min": [
                0
            ],
            "type": "SCALAR"
        },
        {
            "bufferView": 1,
            "byteOffset": 468144,
            "componentType": 5126,
            "count": 37967,
            "max": [
                1.0,
                1.0,
                1.0
            ],
            "min": [
                -1.0,
                -1.0,
                -1.0
            ],
            "type": "VEC3"
        },
        {
            "bufferView": 1,
            "byteOffset": 923748,
            "componentType": 5126,
            "count": 37967,
            "max": [
                37.119140625,
                19.36182975769043,
                9.646546363830569
            ],
            "min": [
                -37.1191520690918,
                1.2051634788513184,
                -30.62211036682129
            ],
            "type": "VEC3"
        },
        {
            "bufferView": 0,
            "byteOffset": 140274,
            "componentType": 5123,
            "count": 8898,
            "max": [
                8126
            ],
            "min": [
                0
            ],
            "type": "SCALAR"
        },
        {
            "bufferView": 1,
            "byteOffset": 1379352,
            "componentType": 5126,
            "count": 8127,
            "max": [
                1.0,
                1.0,
                1.0
            ],
            "min": [
                -1.0,
                -1.0,
                -1.0
            ],
            "type": "VEC3"
        },
        {
            "bufferView": 1,
            "byteOffset": 1476876,
            "componentType": 5126,
            "count": 8127,
            "max": [
                40.212059020996097,
                34.97420120239258,
                13.253602027893069
            ],
            "min": [
                -40.212059020996097,
                10.043055534362792,
                -34.22916412353516
            ],
            "type": "VEC3"
        },
        {
            "bufferView": 0,
            "byteOffset": 158070,
            "componentType": 5123,
            "count": 528,
            "max": [
                478
            ],
            "min": [
                0
            ],
            "type": "SCALAR"
        },
        {
            "bufferView": 1,
            "byteOffset": 1574400,
            "componentType": 5126,
            "count": 479,
            "max": [
                0.999656856060028,
                0.9999343156814576,
                1.0
            ],
            "min": [
                -0.9999831318855286,
                -0.9999949932098388,
                -1.0
            ],
            "type": "VEC3"
        },
        {
            "bufferView": 1,
            "byteOffset": 1580148,
            "componentType": 5126,
            "count": 479,
            "max": [
                18.071006774902345,
                34.903587341308597,
                -10.222644805908204
            ],
            "min": [
                -18.070858001708986,
                34.76861190795899,
                -10.752920150756836
            ],
            "type": "VEC3"
        },
        {
            "bufferView": 0,
            "byteOffset": 159126,
            "componentType": 5123,
            "count": 1185,
            "max": [
                1184
            ],
            "min": [
                0
            ],
            "type": "SCALAR"
        },
        {
            "bufferView": 1,
            "byteOffset": 1585896,
            "componentType": 5126,
            "count": 1185,
            "max": [
                0.7517430782318115,
                0.9699609279632568,
                0.749042809009552
            ],
            "min": [
                -0.7517433166503906,
                0.6594473719596863,
                -0.7490434050559998
            ],
            "type": "VEC3"
        },
        {
            "bufferView": 1,
            "byteOffset": 1600116,
            "componentType": 5126,
            "count": 1185,
            "max": [
                40.01189041137695,
                31.820133209228517,
                13.05522632598877
            ],
            "min": [
                -40.01168441772461,
                11.654909133911133,
                -34.03057098388672
            ],
            "type": "VEC3"
        },
        {
            "bufferView": 2,
            "byteOffset": 3392,
            "componentType": 5126,
            "count": 1185,
            "max": [
                1.0,
                0.16176308691501618,
                1.0,
                1.0
            ],
            "min": [
                -0.07703862339258194,
                -0.16176192462444306,
                -0.9999993443489076,
                -1.0
            ],
            "type": "VEC4"
        },
        {
            "bufferView": 3,
            "byteOffset": 1696,
            "componentType": 5126,
            "count": 1185,
            "max": [
                4.036112785339356,
                3.898599863052368
            ],
            "min": [
                -4.405389785766602,
                -4.299750328063965
            ],
            "type": "VEC2"
        }
    ],
    "materials": [
        {
            "pbrMetallicRoughness": {
                "baseColorFactor": [
                    0.4000000059604645,
                    0.4000000059604645,
                    0.4000000059604645,
                    1.0
                ],
                "metallicFactor": 0.0,
                "roughnessFactor": 1.0
            },
            "name": "lambert1"
        },
        {
            "pbrMetallicRoughness": {
                "baseColorFactor": [
                    0.7622377872467041,
                    0.7622377872467041,
                    0.7622377872467041,
                    1.0
                ],
                "metallicFactor": 0.0,
                "roughnessFactor": 1.0
            },
            "name": "DefaultFBXASC032material_ncl1_4"
        },
        {
            "pbrMetallicRoughness": {
                "baseColorFactor": [
                    0.03946170583367348,
                    0.23076923191547397,
                    0.07948002964258194,
                    1.0
                ],
                "metallicFactor": 0.0,
                "roughnessFactor": 1.0
            },
            "name": "mat:_08_03_014029_cloud2:_86"
        },
        {
            "pbrMetallicRoughness": {
                "baseColorFactor": [
                    0.1450980454683304,
                    0.20000000298023225,
                    0.10196078568696976,
                    1.0
                ],
                "metallicFactor": 0.0,
                "roughnessFactor": 1.0
            },
            "name": "FBXASC091ColorFBXASC032F08FBXASC093FBXASC0450_ncl1_2"
        },
        {
            "pbrMetallicRoughness": {
                "baseColorFactor": [
                    1.0,
                    1.0,
                    1.0,
                    1.0
                ],
                "baseColorTexture": {
                    "index": 0
                },
                "metallicFactor": 0.0,
                "roughnessFactor": 1.0
            },
            "alphaMode": "BLEND",
            "name": "mat:_08_03_014029_cloud2:Fencing_Mesh_Blue42"
        },
        {
            "pbrMetallicRoughness": {
                "baseColorFactor": [
                    0.4363636672496796,
                    0.05018172413110733,
                    0.05018172413110733,
                    1.0
                ],
                "metallicFactor": 0.0,
                "roughnessFactor": 1.0
            },
            "name": "mat:phong1"
        },
        {
            "pbrMetallicRoughness": {
                "baseColorFactor": [
                    0.0,
                    0.0,
                    0.0,
                    1.0
                ],
                "metallicFactor": 0.0,
                "roughnessFactor": 1.0
            },
            "name": "Concrete_Block_8x8_Gray1"
        },
        {
            "pbrMetallicRoughness": {
                "baseColorFactor": [
                    0.710099995136261,
                    0.42820000648498537,
                    0.1669999957084656,
                    1.0
                ],
                "metallicFactor": 0.0,
                "roughnessFactor": 1.0
            },
            "name": "FBXASC091ColorFBXASC032D05FBXASC093_ncl1_4"
        },
        {
            "pbrMetallicRoughness": {
                "baseColorFactor": [
                    0.6491355895996094,
                    0.3912263512611389,
                    0.1330736428499222,
                    1.0
                ],
                "metallicFactor": 0.0,
                "roughnessFactor": 1.0
            },
            "name": "_09_04_123251_roof:ff_wj"
        },
        {
            "pbrMetallicRoughness": {
                "baseColorFactor": [
                    0.9098039269447328,
                    0.6980392336845398,
                    0.3725490272045136,
                    1.0
                ],
                "metallicFactor": 0.0,
                "roughnessFactor": 1.0
            },
            "name": "FBXASC091ColorFBXASC032D04FBXASC093FBXASC0450_ncl1_4"
        },
        {
            "pbrMetallicRoughness": {
                "baseColorFactor": [
                    1.0,
                    1.0,
                    1.0,
                    1.0
                ],
                "baseColorTexture": {
                    "index": 1
                },
                "metallicFactor": 0.0,
                "roughnessFactor": 1.0
            },
            "name": "_09_04_123251_roof:ff_roof0"
        }
    ],
    "textures": [
        {
            "sampler": 0,
            "source": 0
        },
        {
            "sampler": 0,
            "source": 1
        }
    ],
    "images": [
        {
            "uri": "2019_08_12_154746_.png"
        },
        {
            "uri": "2019_08_29_135844_.jpg"
        }
    ],
    "samplers": [
        {
            "magFilter": 9729,
            "minFilter": 9987,
            "wrapS": 10497,
            "wrapT": 10497
        }
    ],
    "bufferViews": [
        {
            "buffer": 0,
            "byteOffset": 1647864,
            "byteLength": 161496,
            "target": 34963
        },
        {
            "buffer": 0,
            "byteOffset": 22352,
            "byteLength": 1614336,
            "byteStride": 12,
            "target": 34962
        },
        {
            "buffer": 0,
            "byteOffset": 0,
            "byteLength": 22352,
            "byteStride": 16,
            "target": 34962
        },
        {
            "buffer": 0,
            "byteOffset": 1636688,
            "byteLength": 11176,
            "byteStride": 8,
            "target": 34962
        }
    ],
    "buffers": [
        {
            "byteLength": 1809360,
            "uri": "2019_08_08_135350_position_recolor0.bin"
        }
    ]
}
