{
    "asset": {
        "copyright": "(C)2019 ran",
        "generator": "Maya2glTF V0.9.10 b7c0eed",
        "version": "2.0"
    },
    "scenes": [
        {
            "nodes": [
                2,
                0
            ]
        }
    ],
    "scene": 0,
    "nodes": [
        {
            "children": [
                1
            ],
            "scale": [
                0.02420254983007908,
                0.02420254983007908,
                0.02420254983007908
            ],
            "name": "zhonghedian"
        },
        {
            "mesh": 0,
            "translation": [
                -207.14361572265626,
                -4.999995708465576,
                285.68798828125
            ],
            "name": "zhonghedian:PIV"
        },
        {
            "mesh": 1,
            "name": "ground"
        }
    ],
    "meshes": [
        {
            "primitives": [
                {
                    "attributes": {
                        "NORMAL": 1,
                        "POSITION": 2
                    },
                    "indices": 0,
                    "mode": 4,
                    "material": 0
                },
                {
                    "attributes": {
                        "NORMAL": 4,
                        "POSITION": 5,
                        "TANGENT": 6,
                        "TEXCOORD_0": 7
                    },
                    "indices": 3,
                    "mode": 4,
                    "material": 1
                },
                {
                    "attributes": {
                        "NORMAL": 9,
                        "POSITION": 10
                    },
                    "indices": 8,
                    "mode": 4,
                    "material": 2
                },
                {
                    "attributes": {
                        "NORMAL": 12,
                        "POSITION": 13
                    },
                    "indices": 11,
                    "mode": 4,
                    "material": 3
                },
                {
                    "attributes": {
                        "NORMAL": 15,
                        "POSITION": 16
                    },
                    "indices": 14,
                    "mode": 4,
                    "material": 4
                },
                {
                    "attributes": {
                        "NORMAL": 18,
                        "POSITION": 19
                    },
                    "indices": 17,
                    "mode": 4,
                    "material": 5
                },
                {
                    "attributes": {
                        "NORMAL": 21,
                        "POSITION": 22,
                        "TANGENT": 23,
                        "TEXCOORD_0": 24
                    },
                    "indices": 20,
                    "mode": 4,
                    "material": 6
                },
                {
                    "attributes": {
                        "NORMAL": 26,
                        "POSITION": 27
                    },
                    "indices": 25,
                    "mode": 4,
                    "material": 7
                }
            ],
            "name": "zhonghedianShape"
        },
        {
            "primitives": [
                {
                    "attributes": {
                        "NORMAL": 29,
                        "POSITION": 30,
                        "TANGENT": 31,
                        "TEXCOORD_0": 32
                    },
                    "indices": 28,
                    "mode": 4,
                    "material": 8
                }
            ],
            "name": "groundShape"
        }
    ],
    "accessors": [
        {
            "bufferView": 0,
            "byteOffset": 0,
            "componentType": 5123,
            "count": 23691,
            "max": [
                17518
            ],
            "min": [
                0
            ],
            "type": "SCALAR"
        },
        {
            "bufferView": 1,
            "byteOffset": 0,
            "componentType": 5126,
            "count": 17519,
            "max": [
                1.0,
                1.0,
                1.0
            ],
            "min": [
                -1.0,
                -1.0,
                -1.0
            ],
            "type": "VEC3"
        },
        {
            "bufferView": 1,
            "byteOffset": 210228,
            "componentType": 5126,
            "count": 17519,
            "max": [
                1677.1435546875,
                965.0,
                1184.31201171875
            ],
            "min": [
                -1262.8564453125,
                115.00000762939452,
                -1755.68798828125
            ],
            "type": "VEC3"
        },
        {
            "bufferView": 0,
            "byteOffset": 47382,
            "componentType": 5123,
            "count": 1332,
            "max": [
                1331
            ],
            "min": [
                0
            ],
            "type": "SCALAR"
        },
        {
            "bufferView": 1,
            "byteOffset": 420456,
            "componentType": 5126,
            "count": 1332,
            "max": [
                0.7300702333450317,
                0.9641119837760924,
                0.7300671339035034
            ],
            "min": [
                -0.7300708293914795,
                0.6733627319335938,
                -0.7358332872390747
            ],
            "type": "VEC3"
        },
        {
            "bufferView": 1,
            "byteOffset": 436440,
            "componentType": 5126,
            "count": 1332,
            "max": [
                1977.1466064453128,
                2074.17236328125,
                1484.31494140625
            ],
            "min": [
                -1562.859130859375,
                995.2760620117188,
                -2055.690673828125
            ],
            "type": "VEC3"
        },
        {
            "bufferView": 2,
            "byteOffset": 0,
            "componentType": 5126,
            "count": 1332,
            "max": [
                1.0,
                0.1222645565867424,
                1.0,
                1.0
            ],
            "min": [
                -0.000020658637367887424,
                -0.12226482480764388,
                -0.000014980556443333626,
                1.0
            ],
            "type": "VEC4"
        },
        {
            "bufferView": 3,
            "byteOffset": 0,
            "componentType": 5126,
            "count": 1332,
            "max": [
                3.137677669525147,
                1.8039004802703856
            ],
            "min": [
                -2.1363306045532228,
                -0.83310866355896
            ],
            "type": "VEC2"
        },
        {
            "bufferView": 0,
            "byteOffset": 50046,
            "componentType": 5123,
            "count": 22950,
            "max": [
                21627
            ],
            "min": [
                0
            ],
            "type": "SCALAR"
        },
        {
            "bufferView": 1,
            "byteOffset": 452424,
            "componentType": 5126,
            "count": 21628,
            "max": [
                1.0,
                1.0,
                1.0
            ],
            "min": [
                -1.0,
                -1.0,
                -1.0
            ],
            "type": "VEC3"
        },
        {
            "bufferView": 1,
            "byteOffset": 711960,
            "componentType": 5126,
            "count": 21628,
            "max": [
                1987.9310302734376,
                2318.2470703125,
                1495.0999755859376
            ],
            "min": [
                -1573.64404296875,
                678.9918212890625,
                -2066.4755859375
            ],
            "type": "VEC3"
        },
        {
            "bufferView": 0,
            "byteOffset": 95946,
            "componentType": 5123,
            "count": 324,
            "max": [
                321
            ],
            "min": [
                0
            ],
            "type": "SCALAR"
        },
        {
            "bufferView": 1,
            "byteOffset": 971496,
            "componentType": 5126,
            "count": 322,
            "max": [
                1.0,
                0.9967204332351684,
                0.9457494020462036
            ],
            "min": [
                -1.0,
                -0.9967204332351684,
                -0.9967187643051148
            ],
            "type": "VEC3"
        },
        {
            "bufferView": 1,
            "byteOffset": 975360,
            "componentType": 5126,
            "count": 322,
            "max": [
                291.5668029785156,
                932.1909790039064,
                1257.9974365234376
            ],
            "min": [
                122.7202606201172,
                749.1666870117188,
                1109.8271484375
            ],
            "type": "VEC3"
        },
        {
            "bufferView": 0,
            "byteOffset": 96594,
            "componentType": 5123,
            "count": 10320,
            "max": [
                6858
            ],
            "min": [
                0
            ],
            "type": "SCALAR"
        },
        {
            "bufferView": 1,
            "byteOffset": 979224,
            "componentType": 5126,
            "count": 6859,
            "max": [
                1.0,
                1.0,
                1.0
            ],
            "min": [
                -1.0,
                -1.0,
                -1.0
            ],
            "type": "VEC3"
        },
        {
            "bufferView": 1,
            "byteOffset": 1061532,
            "componentType": 5126,
            "count": 6859,
            "max": [
                1622.2061767578126,
                740.0,
                1129.1572265625
            ],
            "min": [
                -1207.9190673828126,
                104.99999237060549,
                -1700.7506103515626
            ],
            "type": "VEC3"
        },
        {
            "bufferView": 0,
            "byteOffset": 117234,
            "componentType": 5123,
            "count": 12624,
            "max": [
                8332
            ],
            "min": [
                0
            ],
            "type": "SCALAR"
        },
        {
            "bufferView": 1,
            "byteOffset": 1143840,
            "componentType": 5126,
            "count": 8333,
            "max": [
                1.0,
                1.0,
                1.0
            ],
            "min": [
                -1.0,
                -1.0,
                -1.0
            ],
            "type": "VEC3"
        },
        {
            "bufferView": 1,
            "byteOffset": 1243836,
            "componentType": 5126,
            "count": 8333,
            "max": [
                1602.1436767578126,
                885.0000610351563,
                1109.31201171875
            ],
            "min": [
                -1187.8564453125,
                311.6666564941406,
                -1680.6881103515626
            ],
            "type": "VEC3"
        },
        {
            "bufferView": 0,
            "byteOffset": 142482,
            "componentType": 5123,
            "count": 288,
            "max": [
                215
            ],
            "min": [
                0
            ],
            "type": "SCALAR"
        },
        {
            "bufferView": 1,
            "byteOffset": 1343832,
            "componentType": 5126,
            "count": 216,
            "max": [
                1.0,
                0.0,
                1.0
            ],
            "min": [
                -1.0,
                0.0,
                -1.0
            ],
            "type": "VEC3"
        },
        {
            "bufferView": 1,
            "byteOffset": 1346424,
            "componentType": 5126,
            "count": 216,
            "max": [
                1197.1436767578126,
                588.3333740234375,
                704.3121948242188
            ],
            "min": [
                -782.8565673828125,
                351.6666564941406,
                -1275.6881103515626
            ],
            "type": "VEC3"
        },
        {
            "bufferView": 2,
            "byteOffset": 21312,
            "componentType": 5126,
            "count": 216,
            "max": [
                1.0,
                0.0,
                0.0,
                1.0
            ],
            "min": [
                0.0,
                0.0,
                -1.0,
                1.0
            ],
            "type": "VEC4"
        },
        {
            "bufferView": 3,
            "byteOffset": 10656,
            "componentType": 5126,
            "count": 216,
            "max": [
                1.8686230182647706,
                2.838301181793213
            ],
            "min": [
                -0.8686232566833496,
                -1.7889461517333985
            ],
            "type": "VEC2"
        },
        {
            "bufferView": 0,
            "byteOffset": 143058,
            "componentType": 5123,
            "count": 4386,
            "max": [
                3843
            ],
            "min": [
                0
            ],
            "type": "SCALAR"
        },
        {
            "bufferView": 1,
            "byteOffset": 1349016,
            "componentType": 5126,
            "count": 3844,
            "max": [
                1.0,
                1.0,
                1.0
            ],
            "min": [
                -1.0,
                -1.0,
                -1.0
            ],
            "type": "VEC3"
        },
        {
            "bufferView": 1,
            "byteOffset": 1395144,
            "componentType": 5126,
            "count": 3844,
            "max": [
                2137.1435546875,
                115.10142517089844,
                1644.31201171875
            ],
            "min": [
                -1722.8563232421876,
                -0.000009689330909168348,
                -2215.68798828125
            ],
            "type": "VEC3"
        },
        {
            "bufferView": 0,
            "byteOffset": 151830,
            "componentType": 5123,
            "count": 6,
            "max": [
                3
            ],
            "min": [
                0
            ],
            "type": "SCALAR"
        },
        {
            "bufferView": 1,
            "byteOffset": 1441272,
            "componentType": 5126,
            "count": 4,
            "max": [
                0.0,
                1.0,
                2.220446049250313e-16
            ],
            "min": [
                0.0,
                1.0,
                2.220446049250313e-16
            ],
            "type": "VEC3"
        },
        {
            "bufferView": 1,
            "byteOffset": 1441320,
            "componentType": 5126,
            "count": 4,
            "max": [
                150.0,
                3.3306690738754699e-14,
                150.0
            ],
            "min": [
                -150.0,
                -3.3306690738754699e-14,
                -150.0
            ],
            "type": "VEC3"
        },
        {
            "bufferView": 2,
            "byteOffset": 24768,
            "componentType": 5126,
            "count": 4,
            "max": [
                1.0,
                -0.0,
                0.0,
                1.0
            ],
            "min": [
                1.0,
                -0.0,
                0.0,
                1.0
            ],
            "type": "VEC4"
        },
        {
            "bufferView": 3,
            "byteOffset": 12384,
            "componentType": 5126,
            "count": 4,
            "max": [
                1.0,
                1.0
            ],
            "min": [
                0.0,
                0.0
            ],
            "type": "VEC2"
        }
    ],
    "materials": [
        {
            "pbrMetallicRoughness": {
                "baseColorFactor": [
                    0.03946170583367348,
                    0.23076923191547397,
                    0.07948002964258194,
                    1.0
                ],
                "metallicFactor": 0.0,
                "roughnessFactor": 1.0
            },
            "name": "mat:_08_03_014029_cloud2:_88"
        },
        {
            "pbrMetallicRoughness": {
                "baseColorFactor": [
                    1.0,
                    1.0,
                    1.0,
                    1.0
                ],
                "baseColorTexture": {
                    "index": 0
                },
                "metallicFactor": 0.0,
                "roughnessFactor": 1.0
            },
            "name": "mat:_08_03_014029_cloud2:roof2"
        },
        {
            "pbrMetallicRoughness": {
                "baseColorFactor": [
                    0.8321678042411804,
                    0.3601062297821045,
                    0.10085374861955644,
                    1.0
                ],
                "metallicFactor": 0.0,
                "roughnessFactor": 1.0
            },
            "name": "mat:_08_03_014029_cloud2:_Color_D04_96"
        },
        {
            "pbrMetallicRoughness": {
                "baseColorFactor": [
                    0.0,
                    0.06970000267028809,
                    1.0,
                    1.0
                ],
                "metallicFactor": 0.0,
                "roughnessFactor": 1.0
            },
            "name": "_86"
        },
        {
            "pbrMetallicRoughness": {
                "baseColorFactor": [
                    0.4363636672496796,
                    0.05018172413110733,
                    0.05018172413110733,
                    1.0
                ],
                "metallicFactor": 0.0,
                "roughnessFactor": 1.0
            },
            "name": "mat:phong3"
        },
        {
            "pbrMetallicRoughness": {
                "baseColorFactor": [
                    0.800000011920929,
                    0.4876341819763184,
                    0.12319999188184738,
                    1.0
                ],
                "metallicFactor": 0.0,
                "roughnessFactor": 1.0
            },
            "name": "phong2"
        },
        {
            "pbrMetallicRoughness": {
                "baseColorFactor": [
                    1.0,
                    1.0,
                    1.0,
                    1.0
                ],
                "baseColorTexture": {
                    "index": 1
                },
                "metallicFactor": 0.0,
                "roughnessFactor": 1.0
            },
            "alphaMode": "BLEND",
            "name": "mat:_08_03_014029_cloud2:Fencing_Mesh_Blue44"
        },
        {
            "pbrMetallicRoughness": {
                "baseColorFactor": [
                    0.7552447319030762,
                    0.7552447319030762,
                    0.7552447319030762,
                    1.0
                ],
                "metallicFactor": 0.0,
                "roughnessFactor": 1.0
            },
            "name": "mat:_08_03_014029_cloud2:_Color_M00__248"
        },
        {
            "pbrMetallicRoughness": {
                "baseColorFactor": [
                    0.4000000059604645,
                    0.4000000059604645,
                    0.4000000059604645,
                    1.0
                ],
                "metallicFactor": 0.0,
                "roughnessFactor": 1.0
            },
            "name": "lambert1"
        }
    ],
    "textures": [
        {
            "sampler": 0,
            "source": 0
        },
        {
            "sampler": 0,
            "source": 1
        }
    ],
    "images": [
        {
            "uri": "2019_08_24_143443_roof.jpg"
        },
        {
            "uri": "2019_08_12_154746_.png"
        }
    ],
    "samplers": [
        {
            "magFilter": 9729,
            "minFilter": 9987,
            "wrapS": 10497,
            "wrapT": 10497
        }
    ],
    "bufferViews": [
        {
            "buffer": 0,
            "byteOffset": 1478616,
            "byteLength": 151842,
            "target": 34963
        },
        {
            "buffer": 0,
            "byteOffset": 24832,
            "byteLength": 1441368,
            "byteStride": 12,
            "target": 34962
        },
        {
            "buffer": 0,
            "byteOffset": 0,
            "byteLength": 24832,
            "byteStride": 16,
            "target": 34962
        },
        {
            "buffer": 0,
            "byteOffset": 1466200,
            "byteLength": 12416,
            "byteStride": 8,
            "target": 34962
        }
    ],
    "buffers": [
        {
            "byteLength": 1630458,
            "uri": "2019_08_08_135350_position_recolor0.bin"
        }
    ]
}
