{
    "asset": {
        "copyright": "(C)2019 ran",
        "generator": "Maya2glTF V0.9.10 b7c0eed",
        "version": "2.0"
    },
    "scenes": [
        {
            "nodes": [
                1,
                0
            ]
        }
    ],
    "scene": 0,
    "nodes": [
        {
            "mesh": 0,
            "name": "polySurface3299"
        },
        {
            "mesh": 1,
            "name": "ground"
        }
    ],
    "meshes": [
        {
            "primitives": [
                {
                    "attributes": {
                        "NORMAL": 1,
                        "POSITION": 2
                    },
                    "indices": 0,
                    "mode": 4,
                    "material": 0
                },
                {
                    "attributes": {
                        "NORMAL": 4,
                        "POSITION": 5,
                        "TANGENT": 6,
                        "TEXCOORD_0": 7
                    },
                    "indices": 3,
                    "mode": 4,
                    "material": 1
                },
                {
                    "attributes": {
                        "NORMAL": 9,
                        "POSITION": 10
                    },
                    "indices": 8,
                    "mode": 4,
                    "material": 2
                },
                {
                    "attributes": {
                        "NORMAL": 12,
                        "POSITION": 13
                    },
                    "indices": 11,
                    "mode": 4,
                    "material": 3
                },
                {
                    "attributes": {
                        "NORMAL": 15,
                        "POSITION": 16
                    },
                    "indices": 14,
                    "mode": 4,
                    "material": 4
                },
                {
                    "attributes": {
                        "NORMAL": 18,
                        "POSITION": 19
                    },
                    "indices": 17,
                    "mode": 4,
                    "material": 5
                },
                {
                    "attributes": {
                        "NORMAL": 21,
                        "POSITION": 22,
                        "TANGENT": 23,
                        "TEXCOORD_0": 24
                    },
                    "indices": 20,
                    "mode": 4,
                    "material": 6
                },
                {
                    "attributes": {
                        "NORMAL": 26,
                        "POSITION": 27
                    },
                    "indices": 25,
                    "mode": 4,
                    "material": 7
                }
            ],
            "name": "polySurface3299|polySurface3290Shape"
        },
        {
            "primitives": [
                {
                    "attributes": {
                        "NORMAL": 29,
                        "POSITION": 30,
                        "TANGENT": 31,
                        "TEXCOORD_0": 32
                    },
                    "indices": 28,
                    "mode": 4,
                    "material": 8
                }
            ],
            "name": "groundShape"
        }
    ],
    "accessors": [
        {
            "bufferView": 0,
            "byteOffset": 0,
            "componentType": 5123,
            "count": 4512,
            "max": [
                3975
            ],
            "min": [
                0
            ],
            "type": "SCALAR"
        },
        {
            "bufferView": 1,
            "byteOffset": 0,
            "componentType": 5126,
            "count": 3976,
            "max": [
                1.0,
                1.0,
                1.0
            ],
            "min": [
                -1.0,
                -1.0,
                -1.0
            ],
            "type": "VEC3"
        },
        {
            "bufferView": 1,
            "byteOffset": 47712,
            "componentType": 5126,
            "count": 3976,
            "max": [
                40.424102783203128,
                1.8143064975738528,
                23.77017593383789
            ],
            "min": [
                -23.182920455932618,
                -0.08239258825778961,
                -39.83684921264649
            ],
            "type": "VEC3"
        },
        {
            "bufferView": 0,
            "byteOffset": 9024,
            "componentType": 5123,
            "count": 1332,
            "max": [
                1331
            ],
            "min": [
                0
            ],
            "type": "SCALAR"
        },
        {
            "bufferView": 1,
            "byteOffset": 95424,
            "componentType": 5126,
            "count": 1332,
            "max": [
                0.7300702333450317,
                0.9641120433807372,
                0.7300671935081482
            ],
            "min": [
                -0.7300707697868347,
                0.6733628511428833,
                -0.7358332872390747
            ],
            "type": "VEC3"
        },
        {
            "bufferView": 1,
            "byteOffset": 111408,
            "componentType": 5126,
            "count": 1332,
            "max": [
                37.78759002685547,
                34.09686279296875,
                21.133663177490236
            ],
            "min": [
                -20.546403884887697,
                16.318267822265626,
                -37.20033264160156
            ],
            "type": "VEC3"
        },
        {
            "bufferView": 2,
            "byteOffset": 0,
            "componentType": 5126,
            "count": 1332,
            "max": [
                1.0,
                0.12226445972919464,
                1.0,
                1.0
            ],
            "min": [
                -0.00001967085154319648,
                -0.12226498872041702,
                -0.000013537207451008726,
                1.0
            ],
            "type": "VEC4"
        },
        {
            "bufferView": 3,
            "byteOffset": 0,
            "componentType": 5126,
            "count": 1332,
            "max": [
                3.137677669525147,
                1.8039004802703856
            ],
            "min": [
                -2.1363306045532228,
                -0.83310866355896
            ],
            "type": "VEC2"
        },
        {
            "bufferView": 0,
            "byteOffset": 11688,
            "componentType": 5123,
            "count": 23691,
            "max": [
                17540
            ],
            "min": [
                0
            ],
            "type": "SCALAR"
        },
        {
            "bufferView": 1,
            "byteOffset": 127392,
            "componentType": 5126,
            "count": 17541,
            "max": [
                1.0,
                1.0,
                1.0
            ],
            "min": [
                -1.0,
                -1.0,
                -1.0
            ],
            "type": "VEC3"
        },
        {
            "bufferView": 1,
            "byteOffset": 337884,
            "componentType": 5126,
            "count": 17541,
            "max": [
                32.84398651123047,
                15.819361686706545,
                16.1900634765625
            ],
            "min": [
                -15.60280990600586,
                1.81263530254364,
                -32.25673294067383
            ],
            "type": "VEC3"
        },
        {
            "bufferView": 0,
            "byteOffset": 59070,
            "componentType": 5123,
            "count": 324,
            "max": [
                321
            ],
            "min": [
                0
            ],
            "type": "SCALAR"
        },
        {
            "bufferView": 1,
            "byteOffset": 548376,
            "componentType": 5126,
            "count": 322,
            "max": [
                1.0,
                0.9967204928398132,
                0.9457494616508484
            ],
            "min": [
                -1.0,
                -0.9967204332351684,
                -0.9967188239097596
            ],
            "type": "VEC3"
        },
        {
            "bufferView": 1,
            "byteOffset": 552240,
            "componentType": 5126,
            "count": 322,
            "max": [
                10.011759757995606,
                15.278718948364258,
                17.404285430908204
            ],
            "min": [
                7.229421138763428,
                12.262752532958985,
                14.96266269683838
            ],
            "type": "VEC3"
        },
        {
            "bufferView": 0,
            "byteOffset": 59718,
            "componentType": 5123,
            "count": 22950,
            "max": [
                21627
            ],
            "min": [
                0
            ],
            "type": "SCALAR"
        },
        {
            "bufferView": 1,
            "byteOffset": 556104,
            "componentType": 5126,
            "count": 21628,
            "max": [
                1.0,
                1.0,
                1.0
            ],
            "min": [
                -1.0,
                -1.0,
                -1.0
            ],
            "type": "VEC3"
        },
        {
            "bufferView": 1,
            "byteOffset": 815640,
            "componentType": 5126,
            "count": 21628,
            "max": [
                37.96530151367188,
                38.11884307861328,
                21.311382293701173
            ],
            "min": [
                -20.724123001098634,
                11.106374740600586,
                -37.3780517578125
            ],
            "type": "VEC3"
        },
        {
            "bufferView": 0,
            "byteOffset": 105618,
            "componentType": 5123,
            "count": 10320,
            "max": [
                6846
            ],
            "min": [
                0
            ],
            "type": "SCALAR"
        },
        {
            "bufferView": 1,
            "byteOffset": 1075176,
            "componentType": 5126,
            "count": 6847,
            "max": [
                1.0,
                1.0,
                1.0
            ],
            "min": [
                -1.0,
                -1.0,
                -1.0
            ],
            "type": "VEC3"
        },
        {
            "bufferView": 1,
            "byteOffset": 1157340,
            "componentType": 5126,
            "count": 6847,
            "max": [
                31.93870544433594,
                12.111699104309082,
                15.281193733215332
            ],
            "min": [
                -14.69752311706543,
                1.6478500366210938,
                -31.351451873779298
            ],
            "type": "VEC3"
        },
        {
            "bufferView": 0,
            "byteOffset": 126258,
            "componentType": 5123,
            "count": 288,
            "max": [
                215
            ],
            "min": [
                0
            ],
            "type": "SCALAR"
        },
        {
            "bufferView": 1,
            "byteOffset": 1239504,
            "componentType": 5126,
            "count": 216,
            "max": [
                1.0,
                0.0,
                1.0
            ],
            "min": [
                -1.0,
                0.0,
                -1.0
            ],
            "type": "VEC3"
        },
        {
            "bufferView": 1,
            "byteOffset": 1242096,
            "componentType": 5126,
            "count": 216,
            "max": [
                24.934309005737306,
                9.612459182739258,
                8.280383110046387
            ],
            "min": [
                -7.69312858581543,
                5.71254825592041,
                -24.347061157226564
            ],
            "type": "VEC3"
        },
        {
            "bufferView": 2,
            "byteOffset": 21312,
            "componentType": 5126,
            "count": 216,
            "max": [
                1.0,
                0.0,
                0.0,
                1.0
            ],
            "min": [
                0.0,
                0.0,
                -1.0,
                1.0
            ],
            "type": "VEC4"
        },
        {
            "bufferView": 3,
            "byteOffset": 10656,
            "componentType": 5126,
            "count": 216,
            "max": [
                1.8686230182647706,
                2.838301181793213
            ],
            "min": [
                -0.8686232566833496,
                -1.7889461517333985
            ],
            "type": "VEC2"
        },
        {
            "bufferView": 0,
            "byteOffset": 126834,
            "componentType": 5123,
            "count": 12624,
            "max": [
                8332
            ],
            "min": [
                0
            ],
            "type": "SCALAR"
        },
        {
            "bufferView": 1,
            "byteOffset": 1244688,
            "componentType": 5126,
            "count": 8333,
            "max": [
                1.0,
                1.0,
                1.0
            ],
            "min": [
                -1.0,
                -1.0,
                -1.0
            ],
            "type": "VEC3"
        },
        {
            "bufferView": 1,
            "byteOffset": 1344684,
            "componentType": 5126,
            "count": 8333,
            "max": [
                31.608102798461919,
                14.501081466674805,
                14.954171180725098
            ],
            "min": [
                -14.36692237854004,
                5.053407669067383,
                -31.02084732055664
            ],
            "type": "VEC3"
        },
        {
            "bufferView": 0,
            "byteOffset": 152082,
            "componentType": 5123,
            "count": 6,
            "max": [
                3
            ],
            "min": [
                0
            ],
            "type": "SCALAR"
        },
        {
            "bufferView": 1,
            "byteOffset": 1444680,
            "componentType": 5126,
            "count": 4,
            "max": [
                0.0,
                1.0,
                2.220446049250313e-16
            ],
            "min": [
                0.0,
                1.0,
                2.220446049250313e-16
            ],
            "type": "VEC3"
        },
        {
            "bufferView": 1,
            "byteOffset": 1444728,
            "componentType": 5126,
            "count": 4,
            "max": [
                150.0,
                3.3306690738754699e-14,
                150.0
            ],
            "min": [
                -150.0,
                -3.3306690738754699e-14,
                -150.0
            ],
            "type": "VEC3"
        },
        {
            "bufferView": 2,
            "byteOffset": 24768,
            "componentType": 5126,
            "count": 4,
            "max": [
                1.0,
                -0.0,
                0.0,
                1.0
            ],
            "min": [
                1.0,
                -0.0,
                0.0,
                1.0
            ],
            "type": "VEC4"
        },
        {
            "bufferView": 3,
            "byteOffset": 12384,
            "componentType": 5126,
            "count": 4,
            "max": [
                1.0,
                1.0
            ],
            "min": [
                0.0,
                0.0
            ],
            "type": "VEC2"
        }
    ],
    "materials": [
        {
            "pbrMetallicRoughness": {
                "baseColorFactor": [
                    0.7552447319030762,
                    0.7552447319030762,
                    0.7552447319030762,
                    1.0
                ],
                "metallicFactor": 0.0,
                "roughnessFactor": 1.0
            },
            "name": "mat:_08_03_014029_cloud2:_Color_M00__249"
        },
        {
            "pbrMetallicRoughness": {
                "baseColorFactor": [
                    1.0,
                    1.0,
                    1.0,
                    1.0
                ],
                "baseColorTexture": {
                    "index": 0
                },
                "metallicFactor": 0.0,
                "roughnessFactor": 1.0
            },
            "name": "_09_04_123251_roof:ff_roof0"
        },
        {
            "pbrMetallicRoughness": {
                "baseColorFactor": [
                    0.03946170583367348,
                    0.23076923191547397,
                    0.07948002964258194,
                    1.0
                ],
                "metallicFactor": 0.0,
                "roughnessFactor": 1.0
            },
            "name": "mat:_08_03_014029_cloud2:_89"
        },
        {
            "pbrMetallicRoughness": {
                "baseColorFactor": [
                    0.0,
                    0.06970000267028809,
                    1.0,
                    1.0
                ],
                "metallicFactor": 0.0,
                "roughnessFactor": 1.0
            },
            "name": "_88"
        },
        {
            "pbrMetallicRoughness": {
                "baseColorFactor": [
                    0.6491355895996094,
                    0.3912263512611389,
                    0.1330736428499222,
                    1.0
                ],
                "metallicFactor": 0.0,
                "roughnessFactor": 1.0
            },
            "name": "_09_04_123251_roof:ff_wj"
        },
        {
            "pbrMetallicRoughness": {
                "baseColorFactor": [
                    0.4363636672496796,
                    0.05018172413110733,
                    0.05018172413110733,
                    1.0
                ],
                "metallicFactor": 0.0,
                "roughnessFactor": 1.0
            },
            "name": "mat:phong4"
        },
        {
            "pbrMetallicRoughness": {
                "baseColorFactor": [
                    1.0,
                    1.0,
                    1.0,
                    1.0
                ],
                "baseColorTexture": {
                    "index": 1
                },
                "metallicFactor": 0.0,
                "roughnessFactor": 1.0
            },
            "alphaMode": "BLEND",
            "name": "mat:_08_03_014029_cloud2:Fencing_Mesh_Blue45"
        },
        {
            "pbrMetallicRoughness": {
                "baseColorFactor": [
                    0.800000011920929,
                    0.4876341819763184,
                    0.12319999188184738,
                    1.0
                ],
                "metallicFactor": 0.0,
                "roughnessFactor": 1.0
            },
            "name": "phong3"
        },
        {
            "pbrMetallicRoughness": {
                "baseColorFactor": [
                    0.4000000059604645,
                    0.4000000059604645,
                    0.4000000059604645,
                    1.0
                ],
                "metallicFactor": 0.0,
                "roughnessFactor": 1.0
            },
            "name": "lambert1"
        }
    ],
    "textures": [
        {
            "sampler": 0,
            "source": 0
        },
        {
            "sampler": 0,
            "source": 1
        }
    ],
    "images": [
        {
            "uri": "2019_08_29_135844_.jpg"
        },
        {
            "uri": "2019_08_12_154746_.png"
        }
    ],
    "samplers": [
        {
            "magFilter": 9729,
            "minFilter": 9987,
            "wrapS": 10497,
            "wrapT": 10497
        }
    ],
    "bufferViews": [
        {
            "buffer": 0,
            "byteOffset": 1482024,
            "byteLength": 152094,
            "target": 34963
        },
        {
            "buffer": 0,
            "byteOffset": 24832,
            "byteLength": 1444776,
            "byteStride": 12,
            "target": 34962
        },
        {
            "buffer": 0,
            "byteOffset": 0,
            "byteLength": 24832,
            "byteStride": 16,
            "target": 34962
        },
        {
            "buffer": 0,
            "byteOffset": 1469608,
            "byteLength": 12416,
            "byteStride": 8,
            "target": 34962
        }
    ],
    "buffers": [
        {
            "byteLength": 1634118,
            "uri": "2019_08_08_135350_position_recolor0.bin"
        }
    ]
}
