{
    "asset": {
        "copyright": "(C)2019 ran",
        "generator": "Maya2glTF V0.9.10 b7c0eed",
        "version": "2.0"
    },
    "scenes": [
        {
            "nodes": [
                0
            ]
        }
    ],
    "scene": 0,
    "nodes": [
        {
            "children": [
                1
            ],
            "translation": [
                20.51773834228516,
                34.392093658447269,
                12.794495582580569
            ],
            "name": "|polySurface3250"
        },
        {
            "mesh": 0,
            "translation": [
                -20.51773834228516,
                -34.392093658447269,
                -12.794495582580569
            ],
            "name": "|polySurface3250:PIV"
        }
    ],
    "meshes": [
        {
            "primitives": [
                {
                    "attributes": {
                        "NORMAL": 1,
                        "POSITION": 2,
                        "TANGENT": 3,
                        "TEXCOORD_0": 4
                    },
                    "indices": 0,
                    "mode": 4,
                    "material": 0
                }
            ],
            "name": "polySurface3250Shape"
        }
    ],
    "accessors": [
        {
            "bufferView": 0,
            "byteOffset": 0,
            "componentType": 5123,
            "count": 600,
            "max": [
                154
            ],
            "min": [
                0
            ],
            "type": "SCALAR"
        },
        {
            "bufferView": 1,
            "byteOffset": 0,
            "componentType": 5126,
            "count": 155,
            "max": [
                0.15520861744880677,
                1.0,
                0.20671342313289646
            ],
            "min": [
                -0.13227075338363648,
                0.9782278537750244,
                -0.116361141204834
            ],
            "type": "VEC3"
        },
        {
            "bufferView": 1,
            "byteOffset": 1860,
            "componentType": 5126,
            "count": 155,
            "max": [
                348.8567810058594,
                63.64993667602539,
                369.8200073242188
            ],
            "min": [
                -307.8212890625,
                5.134248733520508,
                -344.2309875488281
            ],
            "type": "VEC3"
        },
        {
            "bufferView": 2,
            "byteOffset": 0,
            "componentType": 5126,
            "count": 155,
            "max": [
                0.9966005682945252,
                0.1456555724143982,
                0.2259300798177719,
                1.0
            ],
            "min": [
                -0.9980775117874146,
                -0.16729715466499329,
                -0.8946975469589233,
                1.0
            ],
            "type": "VEC4"
        },
        {
            "bufferView": 3,
            "byteOffset": 0,
            "componentType": 5126,
            "count": 155,
            "max": [
                0.0,
                1.0
            ],
            "min": [
                -1.0230000019073489,
                -0.0465233325958252
            ],
            "type": "VEC2"
        }
    ],
    "materials": [
        {
            "pbrMetallicRoughness": {
                "baseColorFactor": [
                    0.800000011920929,
                    0.800000011920929,
                    0.800000011920929,
                    1.0
                ],
                "baseColorTexture": {
                    "index": 0
                },
                "metallicFactor": 0.0,
                "roughnessFactor": 1.0
            },
            "alphaMode": "BLEND",
            "name": "cloud"
        }
    ],
    "textures": [
        {
            "sampler": 0,
            "source": 0
        }
    ],
    "images": [
        {
            "uri": "cloud"
        }
    ],
    "samplers": [
        {
            "magFilter": 9729,
            "minFilter": 9987,
            "wrapS": 10497,
            "wrapT": 10497
        }
    ],
    "bufferViews": [
        {
            "buffer": 0,
            "byteOffset": 7440,
            "byteLength": 1200,
            "target": 34963
        },
        {
            "buffer": 0,
            "byteOffset": 2480,
            "byteLength": 3720,
            "byteStride": 12,
            "target": 34962
        },
        {
            "buffer": 0,
            "byteOffset": 0,
            "byteLength": 2480,
            "byteStride": 16,
            "target": 34962
        },
        {
            "buffer": 0,
            "byteOffset": 6200,
            "byteLength": 1240,
            "byteStride": 8,
            "target": 34962
        }
    ],
    "buffers": [
        {
            "byteLength": 8640,
            "uri": "2019_08_08_135350_position_recolor0.bin"
        }
    ]
}
