{
  "accessors": [
    {
      "bufferView": 2,
      "componentType": 5126,
      "count": 26,
      "max": [
        546.8646240234375,
        47.999973297119141,
        546.86456298828125
      ],
      "min": [
        -158.86459350585938,
        47.999973297119141,
        -158.86466979980469
      ],
      "type": "VEC3"
    },
    {
      "bufferView": 2,
      "byteOffset": 312,
      "componentType": 5126,
      "count": 26,
      "max": [
        0,
        1,
        1.2691853612523118e-07
      ],
      "min": [
        0,
        1,
        -5.9988781231368193e-07
      ],
      "type": "VEC3"
    },
    {
      "bufferView": 3,
      "componentType": 5126,
      "count": 26,
      "max": [
        1,
        0,
        0,
        1
      ],
      "min": [
        1,
        0,
        0,
        1
      ],
      "type": "VEC4"
    },
    {
      "bufferView": 1,
      "componentType": 5126,
      "count": 26,
      "max": [
        1,
        1
      ],
      "min": [
        0,
        5.9604644775390625e-08
      ],
      "type": "VEC2"
    },
    {
      "bufferView": 0,
      "componentType": 5125,
      "count": 54,
      "max": [
        25
      ],
      "min": [
        0
      ],
      "type": "SCALAR"
    },
    {
      "bufferView": 2,
      "byteOffset": 624,
      "componentType": 5126,
      "count": 10258,
      "max": [
        489.99163818359375,
        603.30535888671875,
        490.01376342773438
      ],
      "min": [
        -101.99172973632812,
        48,
        -102.01385498046875
      ],
      "type": "VEC3"
    },
    {
      "bufferView": 2,
      "byteOffset": 123720,
      "componentType": 5126,
      "count": 10258,
      "max": [
        1,
        1,
        1
      ],
      "min": [
        -1,
        -1,
        -1
      ],
      "type": "VEC3"
    },
    {
      "bufferView": 3,
      "byteOffset": 416,
      "componentType": 5126,
      "count": 10258,
      "max": [
        1,
        1,
        1,
        1
      ],
      "min": [
        -1,
        -1,
        -1,
        -1
      ],
      "type": "VEC4"
    },
    {
      "bufferView": 1,
      "byteOffset": 208,
      "componentType": 5126,
      "count": 10258,
      "max": [
        209.30238342285156,
        192.67189025878906
      ],
      "min": [
        -158.76307678222656,
        -114.37738800048828
      ],
      "type": "VEC2"
    },
    {
      "bufferView": 0,
      "byteOffset": 216,
      "componentType": 5125,
      "count": 16692,
      "max": [
        10257
      ],
      "min": [
        0
      ],
      "type": "SCALAR"
    },
    {
      "bufferView": 2,
      "byteOffset": 246816,
      "componentType": 5126,
      "count": 46507,
      "max": [
        594.48956298828125,
        698.26312255859375,
        602.4097900390625
      ],
      "min": [
        -206.13554382324219,
        183.97398376464844,
        -214.22787475585938
      ],
      "type": "VEC3"
    },
    {
      "bufferView": 2,
      "byteOffset": 804900,
      "componentType": 5126,
      "count": 46507,
      "max": [
        1,
        1,
        1
      ],
      "min": [
        -1,
        -1,
        -1
      ],
      "type": "VEC3"
    },
    {
      "bufferView": 3,
      "byteOffset": 164544,
      "componentType": 5126,
      "count": 46507,
      "max": [
        1,
        1,
        1,
        1
      ],
      "min": [
        -1,
        -1,
        -1,
        -1
      ],
      "type": "VEC4"
    },
    {
      "bufferView": 1,
      "byteOffset": 82272,
      "componentType": 5126,
      "count": 46507,
      "max": [
        1.621246337890625,
        2.05767822265625
      ],
      "min": [
        -0.62279510498046875,
        -1.057861328125
      ],
      "type": "VEC2"
    },
    {
      "bufferView": 0,
      "byteOffset": 66984,
      "componentType": 5125,
      "count": 59184,
      "max": [
        46506
      ],
      "min": [
        0
      ],
      "type": "SCALAR"
    },
    {
      "bufferView": 2,
      "byteOffset": 1362984,
      "componentType": 5126,
      "count": 41346,
      "max": [
        548.324951171875,
        77.572807312011719,
        548.3818359375
      ],
      "min": [
        -258,
        -4.5290390056731186e-15,
        -258.00006103515625
      ],
      "type": "VEC3"
    },
    {
      "bufferView": 2,
      "byteOffset": 1859136,
      "componentType": 5126,
      "count": 41346,
      "max": [
        1,
        1,
        1
      ],
      "min": [
        -1,
        -1,
        -1
      ],
      "type": "VEC3"
    },
    {
      "bufferView": 3,
      "byteOffset": 908656,
      "componentType": 5126,
      "count": 41346,
      "max": [
        1,
        1,
        1,
        1
      ],
      "min": [
        -1,
        -1,
        -1,
        -1
      ],
      "type": "VEC4"
    },
    {
      "bufferView": 1,
      "byteOffset": 454328,
      "componentType": 5126,
      "count": 41346,
      "max": [
        27.559055328369141,
        24.594532012939453
      ],
      "min": [
        -27.559055328369141,
        -27.559055328369141
      ],
      "type": "VEC2"
    },
    {
      "bufferView": 0,
      "byteOffset": 303720,
      "componentType": 5125,
      "count": 56160,
      "max": [
        41345
      ],
      "min": [
        0
      ],
      "type": "SCALAR"
    },
    {
      "bufferView": 2,
      "byteOffset": 2355288,
      "componentType": 5126,
      "count": 4818,
      "max": [
        546,
        465.35675048828125,
        545.99993896484375
      ],
      "min": [
        -158.00003051757812,
        183.97398376464844,
        -158.00006103515625
      ],
      "type": "VEC3"
    },
    {
      "bufferView": 2,
      "byteOffset": 2413104,
      "componentType": 5126,
      "count": 4818,
      "max": [
        1,
        1,
        1
      ],
      "min": [
        -1,
        -1,
        -1
      ],
      "type": "VEC3"
    },
    {
      "bufferView": 3,
      "byteOffset": 1570192,
      "componentType": 5126,
      "count": 4818,
      "max": [
        1,
        1,
        1,
        1
      ],
      "min": [
        -1,
        -1,
        -1,
        -1
      ],
      "type": "VEC4"
    },
    {
      "bufferView": 1,
      "byteOffset": 785096,
      "componentType": 5126,
      "count": 4818,
      "max": [
        645.6693115234375,
        645.6693115234375
      ],
      "min": [
        -645.6693115234375,
        -47.244094848632812
      ],
      "type": "VEC2"
    },
    {
      "bufferView": 0,
      "byteOffset": 528360,
      "componentType": 5125,
      "count": 16023,
      "max": [
        4817
      ],
      "min": [
        0
      ],
      "type": "SCALAR"
    },
    {
      "bufferView": 2,
      "byteOffset": 2470920,
      "componentType": 5126,
      "count": 11837,
      "max": [
        593.5106201171875,
        616.943115234375,
        593.60516357421875
      ],
      "min": [
        -205.57412719726562,
        247.58726501464844,
        -205.47955322265625
      ],
      "type": "VEC3"
    },
    {
      "bufferView": 2,
      "byteOffset": 2612964,
      "componentType": 5126,
      "count": 11837,
      "max": [
        0.77452003955841064,
        0.97602188587188721,
        0.77452003955841064
      ],
      "min": [
        -0.76672977209091187,
        0.6325494647026062,
        -0.76672977209091187
      ],
      "type": "VEC3"
    },
    {
      "bufferView": 3,
      "byteOffset": 1647280,
      "componentType": 5126,
      "count": 11837,
      "max": [
        1,
        0.30213171243667603,
        1,
        1
      ],
      "min": [
        -1,
        -0.29164627194404602,
        -1,
        -1
      ],
      "type": "VEC4"
    },
    {
      "bufferView": 1,
      "byteOffset": 823640,
      "componentType": 5126,
      "count": 11837,
      "max": [
        6.2224969863891602,
        2.9861581325531006
      ],
      "min": [
        -5.7128162384033203,
        -1.6972925662994385
      ],
      "type": "VEC2"
    },
    {
      "bufferView": 0,
      "byteOffset": 592452,
      "componentType": 5125,
      "count": 12411,
      "max": [
        11836
      ],
      "min": [
        0
      ],
      "type": "SCALAR"
    },
    {
      "bufferView": 2,
      "byteOffset": 2755008,
      "componentType": 5126,
      "count": 176,
      "max": [
        482.00003051757812,
        172.80000305175781,
        481.99993896484375
      ],
      "min": [
        -93.999954223632812,
        87.199996948242188,
        -94.0001220703125
      ],
      "type": "VEC3"
    },
    {
      "bufferView": 2,
      "byteOffset": 2757120,
      "componentType": 5126,
      "count": 176,
      "max": [
        1,
        0,
        1
      ],
      "min": [
        -1,
        0,
        -1
      ],
      "type": "VEC3"
    },
    {
      "bufferView": 3,
      "byteOffset": 1836672,
      "componentType": 5126,
      "count": 176,
      "max": [
        1,
        0,
        1,
        1
      ],
      "min": [
        -1,
        0,
        -1,
        -1
      ],
      "type": "VEC4"
    },
    {
      "bufferView": 1,
      "byteOffset": 918336,
      "componentType": 5126,
      "count": 176,
      "max": [
        115.85799407958984,
        5.2399997711181641
      ],
      "min": [
        -2.2400000095367432,
        0.95999997854232788
      ],
      "type": "VEC2"
    },
    {
      "bufferView": 1,
      "byteOffset": 919744,
      "componentType": 5126,
      "count": 176,
      "max": [
        115.85799407958984,
        5.2399997711181641
      ],
      "min": [
        -2.2400000095367432,
        0.95999997854232788
      ],
      "type": "VEC2"
    },
    {
      "bufferView": 0,
      "byteOffset": 642096,
      "componentType": 5125,
      "count": 264,
      "max": [
        175
      ],
      "min": [
        0
      ],
      "type": "SCALAR"
    },
    {
      "bufferView": 2,
      "byteOffset": 2759232,
      "componentType": 5126,
      "count": 240,
      "max": [
        486.00006103515625,
        84,
        485.99993896484375
      ],
      "min": [
        -97.999969482421875,
        47.999954223632812,
        -98.00006103515625
      ],
      "type": "VEC3"
    },
    {
      "bufferView": 2,
      "byteOffset": 2762112,
      "componentType": 5126,
      "count": 240,
      "max": [
        1,
        1,
        1
      ],
      "min": [
        -1,
        -1,
        -1
      ],
      "type": "VEC3"
    },
    {
      "bufferView": 3,
      "byteOffset": 1839488,
      "componentType": 5126,
      "count": 240,
      "max": [
        1,
        1,
        1,
        1
      ],
      "min": [
        -3.3628992241574451e-05,
        -1,
        -1,
        1
      ],
      "type": "VEC4"
    },
    {
      "bufferView": 1,
      "byteOffset": 921152,
      "componentType": 5126,
      "count": 240,
      "max": [
        0.58656257390975952,
        1.2206683158874512
      ],
      "min": [
        -0.48388898372650146,
        0.042199671268463135
      ],
      "type": "VEC2"
    },
    {
      "bufferView": 0,
      "byteOffset": 643152,
      "componentType": 5125,
      "count": 456,
      "max": [
        239
      ],
      "min": [
        0
      ],
      "type": "SCALAR"
    }
  ],
  "asset": {
    "extras": {
      "author": "zzzrrr114 (https://sketchfab.com/zzzrrr114)",
      "license": "CC-BY-4.0 (http://creativecommons.org/licenses/by/4.0/)",
      "source": "https://sketchfab.com/3d-models/2019-08-12-162356-5847ea78b1414981a0e115a681723771",
      "title": "2019 08 12 162356"
    },
    "generator": "Sketchfab-6.0.0",
    "version": "2.0"
  },
  "bufferViews": [
    {
      "buffer": 0,
      "byteLength": 644976,
      "byteOffset": 0,
      "name": "floatBufferViews",
      "target": 34963
    },
    {
      "buffer": 0,
      "byteLength": 923072,
      "byteOffset": 644976,
      "byteStride": 8,
      "name": "floatBufferViews",
      "target": 34962
    },
    {
      "buffer": 0,
      "byteLength": 2764992,
      "byteOffset": 1568048,
      "byteStride": 12,
      "name": "floatBufferViews",
      "target": 34962
    },
    {
      "buffer": 0,
      "byteLength": 1843328,
      "byteOffset": 4333040,
      "byteStride": 16,
      "name": "floatBufferViews",
      "target": 34962
    }
  ],
  "buffers": [
    {
      "byteLength": 6176368,
      "uri": "scene.bin"
    }
  ],
  "images": [
    {
      "uri": "textures/08_03_014029_cloud2roof0_baseColor.jpeg"
    },
    {
      "uri": "textures/08_03_014029_cloud2Fencing_Mesh_Blue42_baseColor.png"
    }
  ],
  "materials": [
    {
      "doubleSided": true,
      "emissiveFactor": [
        0,
        0,
        0
      ],
      "name": "08_03_014029_cloud2_Color_M00__246",
      "pbrMetallicRoughness": {
        "baseColorFactor": [
          0.75524500000000006,
          0.75524500000000006,
          0.75524500000000006,
          1
        ],
        "metallicFactor": 0,
        "roughnessFactor": 1
      }
    },
    {
      "doubleSided": true,
      "emissiveFactor": [
        0,
        0,
        0
      ],
      "name": "phong1",
      "pbrMetallicRoughness": {
        "baseColorFactor": [
          0.54545500000000002,
          0.062727199999999997,
          0.062727199999999997,
          1
        ],
        "metallicFactor": 0,
        "roughnessFactor": 1
      }
    },
    {
      "doubleSided": true,
      "emissiveFactor": [
        0,
        0,
        0
      ],
      "name": "08_03_014029_cloud2_Color_D04_94",
      "pbrMetallicRoughness": {
        "baseColorFactor": [
          0.50811600000000001,
          0.21987899999999999,
          0.061580599999999999,
          1
        ],
        "metallicFactor": 0,
        "roughnessFactor": 1
      }
    },
    {
      "doubleSided": true,
      "emissiveFactor": [
        0,
        0,
        0
      ],
      "name": "lambert2",
      "pbrMetallicRoughness": {
        "baseColorFactor": [
          1,
          1,
          1,
          1
        ],
        "metallicFactor": 0,
        "roughnessFactor": 0.59999999999999998
      }
    },
    {
      "doubleSided": true,
      "emissiveFactor": [
        0,
        0,
        0
      ],
      "name": "08_03_014029_cloud2_86",
      "pbrMetallicRoughness": {
        "baseColorFactor": [
          0.039461700000000002,
          0.230769,
          0.079479999999999995,
          1
        ],
        "metallicFactor": 0,
        "roughnessFactor": 1
      }
    },
    {
      "doubleSided": true,
      "emissiveFactor": [
        0,
        0,
        0
      ],
      "name": "08_03_014029_cloud2roof0",
      "pbrMetallicRoughness": {
        "baseColorFactor": [
          1,
          1,
          1,
          1
        ],
        "baseColorTexture": {
          "index": 0,
          "texCoord": 0
        },
        "metallicFactor": 0,
        "roughnessFactor": 1
      }
    },
    {
      "alphaMode": "BLEND",
      "doubleSided": true,
      "emissiveFactor": [
        0,
        0,
        0
      ],
      "name": "08_03_014029_cloud2Fencing_Mesh_Blue42",
      "pbrMetallicRoughness": {
        "baseColorFactor": [
          1,
          1,
          1,
          1
        ],
        "baseColorTexture": {
          "index": 1,
          "texCoord": 0
        },
        "metallicFactor": 0,
        "roughnessFactor": 1
      }
    },
    {
      "doubleSided": true,
      "emissiveFactor": [
        0,
        0,
        0
      ],
      "name": "08_03_014029_cloud2Color_M04",
      "pbrMetallicRoughness": {
        "baseColorFactor": [
          0.37762200000000001,
          0.37762200000000001,
          0.37762200000000001,
          1
        ],
        "metallicFactor": 0,
        "roughnessFactor": 1
      }
    }
  ],
  "meshes": [
    {
      "name": "polySurface2006__08_03_014029_cloud2:_Color_M00__246_0",
      "primitives": [
        {
          "attributes": {
            "NORMAL": 1,
            "POSITION": 0,
            "TANGENT": 2,
            "TEXCOORD_0": 3
          },
          "indices": 4,
          "material": 0,
          "mode": 4
        }
      ]
    },
    {
      "name": "polySurface2006_phong1_0",
      "primitives": [
        {
          "attributes": {
            "NORMAL": 6,
            "POSITION": 5,
            "TANGENT": 7,
            "TEXCOORD_0": 8
          },
          "indices": 9,
          "material": 1,
          "mode": 4
        }
      ]
    },
    {
      "name": "polySurface2006__08_03_014029_cloud2:_Color_D04_94_0",
      "primitives": [
        {
          "attributes": {
            "NORMAL": 11,
            "POSITION": 10,
            "TANGENT": 12,
            "TEXCOORD_0": 13
          },
          "indices": 14,
          "material": 2,
          "mode": 4
        }
      ]
    },
    {
      "name": "polySurface2006_lambert2_0",
      "primitives": [
        {
          "attributes": {
            "NORMAL": 16,
            "POSITION": 15,
            "TANGENT": 17,
            "TEXCOORD_0": 18
          },
          "indices": 19,
          "material": 3,
          "mode": 4
        }
      ]
    },
    {
      "name": "polySurface2006__08_03_014029_cloud2:_86_0",
      "primitives": [
        {
          "attributes": {
            "NORMAL": 21,
            "POSITION": 20,
            "TANGENT": 22,
            "TEXCOORD_0": 23
          },
          "indices": 24,
          "material": 4,
          "mode": 4
        }
      ]
    },
    {
      "name": "polySurface2006__08_03_014029_cloud2:roof0_0",
      "primitives": [
        {
          "attributes": {
            "NORMAL": 26,
            "POSITION": 25,
            "TANGENT": 27,
            "TEXCOORD_0": 28
          },
          "indices": 29,
          "material": 5,
          "mode": 4
        }
      ]
    },
    {
      "name": "polySurface2006__08_03_014029_cloud2:Fencing_Mesh_Blue42_0",
      "primitives": [
        {
          "attributes": {
            "NORMAL": 31,
            "POSITION": 30,
            "TANGENT": 32,
            "TEXCOORD_0": 33,
            "TEXCOORD_1": 34
          },
          "indices": 35,
          "material": 6,
          "mode": 4
        }
      ]
    },
    {
      "name": "polySurface2006__08_03_014029_cloud2:Color_M04_0",
      "primitives": [
        {
          "attributes": {
            "NORMAL": 37,
            "POSITION": 36,
            "TANGENT": 38,
            "TEXCOORD_0": 39
          },
          "indices": 40,
          "material": 7,
          "mode": 4
        }
      ]
    }
  ],
  "nodes": [
    {
      "children": [
        1
      ],
      "name": "RootNode (gltf orientation matrix)",
      "rotation": [
        -0.70710678118654746,
        -0,
        -0,
        0.70710678118654757
      ]
    },
    {
      "children": [
        2
      ],
      "name": "RootNode (model correction matrix)"
    },
    {
      "children": [
        3
      ],
      "matrix": [
        1,
        0,
        0,
        0,
        0,
        0,
        1,
        0,
        0,
        -1,
        0,
        0,
        0,
        0,
        0,
        1
      ],
      "name": "b48d22df1bf442e0b6ac3af08291c5ff.fbx"
    },
    {
      "children": [
        4
      ],
      "name": "RootNode"
    },
    {
      "children": [
        5,
        6,
        7,
        8,
        9,
        10,
        11,
        12
      ],
      "matrix": [
        4.870422386112093e-19,
        0,
        -0.0010967216221615672,
        0,
        0,
        0.0010967216221615672,
        0,
        0,
        0.0010967216221615672,
        0,
        4.870422386112093e-19,
        0,
        -0.1470048725605011,
        -1.2975705843132346e-08,
        0.14451467990875244,
        1
      ],
      "name": "polySurface2006"
    },
    {
      "mesh": 0,
      "name": "polySurface2006__08_03_014029_cloud2:_Color_M00__246_0"
    },
    {
      "mesh": 1,
      "name": "polySurface2006_phong1_0"
    },
    {
      "mesh": 2,
      "name": "polySurface2006__08_03_014029_cloud2:_Color_D04_94_0"
    },
    {
      "mesh": 3,
      "name": "polySurface2006_lambert2_0"
    },
    {
      "mesh": 4,
      "name": "polySurface2006__08_03_014029_cloud2:_86_0"
    },
    {
      "mesh": 5,
      "name": "polySurface2006__08_03_014029_cloud2:roof0_0"
    },
    {
      "mesh": 6,
      "name": "polySurface2006__08_03_014029_cloud2:Fencing_Mesh_Blue42_0"
    },
    {
      "mesh": 7,
      "name": "polySurface2006__08_03_014029_cloud2:Color_M04_0"
    }
  ],
  "samplers": [
    {
      "magFilter": 9729,
      "minFilter": 9987,
      "wrapS": 10497,
      "wrapT": 10497
    }
  ],
  "scene": 0,
  "scenes": [
    {
      "name": "OSG_Scene",
      "nodes": [
        0
      ]
    }
  ],
  "textures": [
    {
      "sampler": 0,
      "source": 0
    },
    {
      "sampler": 0,
      "source": 1
    }
  ]
}

